<svg width="36" height="32" viewBox="0 0 36 32" fill="none" xmlns="http://www.w3.org/2000/svg">
<g filter="url(#filter0_d_48_636)">
<path opacity="0.1" fill-rule="evenodd" clip-rule="evenodd" d="M0 16.5039C0 7.66735 7.16344 0.503906 16 0.503906C24.8366 0.503906 32 7.66735 32 16.5039C32 25.3405 24.8366 32.5039 16 32.5039C7.16344 32.5039 0 25.3405 0 16.5039Z" fill="white"/>
<path d="M21.5446 10.9378C20.5246 10.4268 19.4313 10.049 18.288 9.83422C18.2778 9.83204 18.2673 9.83344 18.2579 9.83822C18.2484 9.843 18.2406 9.85092 18.2354 9.86088C18.0954 10.1342 17.9394 10.4905 17.83 10.7719C16.6175 10.5706 15.3847 10.5706 14.1721 10.7719C14.0504 10.46 13.913 10.1558 13.7608 9.86088C13.7557 9.8508 13.7479 9.8427 13.7384 9.83767C13.729 9.83264 13.7185 9.83092 13.7082 9.83273C12.5655 10.0475 11.4722 10.4253 10.4516 10.9371C10.4428 10.9412 10.4354 10.9482 10.4303 10.9571C8.35564 14.3458 7.78699 17.6507 8.06632 20.9142C8.0671 20.9222 8.06933 20.93 8.07288 20.937C8.07643 20.944 8.08123 20.9501 8.08698 20.955C9.29788 21.9345 10.6485 22.6806 12.0822 23.1622C12.0922 23.1656 12.1029 23.1656 12.1129 23.1622C12.1229 23.1588 12.1317 23.1521 12.1382 23.143C12.4467 22.6845 12.7201 22.1982 12.9555 21.689C12.9588 21.682 12.9607 21.6744 12.961 21.6665C12.9614 21.6587 12.9603 21.6509 12.9577 21.6435C12.9551 21.6362 12.9511 21.6296 12.946 21.6242C12.9409 21.6187 12.9348 21.6146 12.9282 21.612C12.4975 21.4318 12.0803 21.2143 11.6802 20.9616C11.673 20.9571 11.667 20.9506 11.6626 20.9428C11.6582 20.935 11.6556 20.9261 11.6551 20.9169C11.6546 20.9078 11.6561 20.8986 11.6596 20.8902C11.663 20.8819 11.6683 20.8746 11.6749 20.869C11.7589 20.8002 11.8429 20.7283 11.9229 20.6565C11.9301 20.65 11.9387 20.6459 11.9479 20.6446C11.9571 20.6433 11.9664 20.6448 11.9749 20.6491C14.5928 21.9556 17.428 21.9556 20.0153 20.6491C20.0238 20.6446 20.0332 20.6428 20.0425 20.644C20.0518 20.6452 20.0606 20.6492 20.068 20.6557C20.148 20.7283 20.2313 20.8002 20.316 20.869C20.3226 20.8745 20.328 20.8816 20.3315 20.8899C20.3351 20.8982 20.3368 20.9074 20.3364 20.9165C20.336 20.9257 20.3335 20.9346 20.3293 20.9425C20.325 20.9504 20.3191 20.9569 20.312 20.9616C19.9133 21.2164 19.4987 21.432 19.0633 21.6112C19.0566 21.6139 19.0506 21.6182 19.0455 21.6237C19.0404 21.6292 19.0364 21.6359 19.0338 21.6432C19.0312 21.6506 19.0301 21.6585 19.0305 21.6664C19.0308 21.6743 19.0327 21.682 19.036 21.689C19.276 22.1978 19.5507 22.6823 19.8526 23.1422C19.8589 23.1517 19.8677 23.1587 19.8777 23.1624C19.8877 23.1661 19.8985 23.1663 19.9086 23.163C21.3448 22.6827 22.6976 21.9362 23.9099 20.955C23.9158 20.9504 23.9207 20.9444 23.9244 20.9375C23.9281 20.9306 23.9304 20.9229 23.9312 20.915C24.2645 17.1419 23.3725 13.8636 21.5653 10.9586C21.5608 10.9491 21.5535 10.9418 21.5446 10.9378ZM13.3468 18.927C12.5589 18.927 11.9089 18.1352 11.9089 17.1641C11.9089 16.1923 12.5462 15.4013 13.3468 15.4013C14.1535 15.4013 14.7975 16.199 14.7848 17.1641C14.7848 18.1359 14.1475 18.927 13.3468 18.927V18.927ZM18.6633 18.927C17.8747 18.927 17.2254 18.1352 17.2254 17.1641C17.2254 16.1923 17.862 15.4013 18.6633 15.4013C19.47 15.4013 20.114 16.199 20.1013 17.1641C20.1013 18.1359 19.4707 18.927 18.6633 18.927V18.927Z" fill="white"/>
</g>
<defs>
<filter id="filter0_d_48_636" x="-4" y="0.503906" width="40" height="40" filterUnits="userSpaceOnUse" color-interpolation-filters="sRGB">
<feFlood flood-opacity="0" result="BackgroundImageFix"/>
<feColorMatrix in="SourceAlpha" type="matrix" values="0 0 0 0 0 0 0 0 0 0 0 0 0 0 0 0 0 0 127 0" result="hardAlpha"/>
<feOffset dy="4"/>
<feGaussianBlur stdDeviation="2"/>
<feComposite in2="hardAlpha" operator="out"/>
<feColorMatrix type="matrix" values="0 0 0 0 0 0 0 0 0 0 0 0 0 0 0 0 0 0 0.25 0"/>
<feBlend mode="normal" in2="BackgroundImageFix" result="effect1_dropShadow_48_636"/>
<feBlend mode="normal" in="SourceGraphic" in2="effect1_dropShadow_48_636" result="shape"/>
</filter>
</defs>
</svg>
