<svg width="40" height="40" viewBox="0 0 40 40" fill="none" xmlns="http://www.w3.org/2000/svg">
<path d="M16.3059 7.1107C16.4078 7.31803 16.475 7.54007 16.5052 7.76833L17.062 16.0482L17.3385 20.2099C17.3413 20.6379 17.4085 21.0631 17.5377 21.4719C17.8716 22.2649 18.6747 22.7689 19.5485 22.7338L32.8632 21.8629C33.4398 21.8534 33.9966 22.069 34.411 22.4623C34.7564 22.7901 34.9794 23.2189 35.0497 23.6801L35.0733 23.9602C34.5223 31.5897 28.9188 37.9532 21.3052 39.5959C13.6915 41.2386 5.88403 37.7685 2.12168 31.0697C1.03703 29.1235 0.359548 26.9843 0.129009 24.7778C0.0327016 24.1246 -0.00970498 23.4648 0.00220261 22.8049C-0.00968785 14.6252 5.81524 7.55356 13.969 5.84877C14.9504 5.69596 15.9124 6.21548 16.3059 7.1107Z" fill="#45C646"/>
<path opacity="0.4" d="M21.7394 0.00163839C30.8593 0.233655 38.5242 6.79164 39.9996 15.6247L39.9855 15.6899L39.9452 15.7847L39.9508 16.0449C39.9299 16.3896 39.7969 16.7212 39.5675 16.9891C39.3286 17.2682 39.0022 17.4582 38.6427 17.532L38.4236 17.5621L23.0618 18.5574C22.5509 18.6078 22.0421 18.443 21.6621 18.1041C21.3454 17.8216 21.143 17.4403 21.0858 17.0295L20.0547 1.69014C20.0368 1.63827 20.0368 1.58204 20.0547 1.53018C20.0688 1.10735 20.2549 0.707686 20.5715 0.420463C20.8881 0.133241 21.3087 -0.0176009 21.7394 0.00163839Z" fill="#45C646"/>
</svg>
