<svg width="40" height="32" viewBox="0 0 40 32" fill="none" xmlns="http://www.w3.org/2000/svg">
<g filter="url(#filter0_d_48_639)">
<path opacity="0.1" fill-rule="evenodd" clip-rule="evenodd" d="M4 16.5039C4 7.66735 11.1634 0.503906 20 0.503906C28.8366 0.503906 36 7.66735 36 16.5039C36 25.3405 28.8366 32.5039 20 32.5039C11.1634 32.5039 4 25.3405 4 16.5039Z" fill="white"/>
<path fill-rule="evenodd" clip-rule="evenodd" d="M19.999 7.96484C17.6814 7.96484 17.3906 7.97498 16.4804 8.0164C15.5719 8.058 14.9518 8.20182 14.4092 8.41285C13.848 8.63081 13.3719 8.92237 12.8976 9.39686C12.4229 9.87117 12.1313 10.3473 11.9127 10.9083C11.7011 11.4511 11.5571 12.0714 11.5162 12.9795C11.4755 13.8897 11.4648 14.1807 11.4648 16.4983C11.4648 18.8158 11.4752 19.1058 11.5164 20.016C11.5582 20.9244 11.702 21.5445 11.9128 22.0871C12.131 22.6484 12.4225 23.1245 12.897 23.5988C13.3712 24.0735 13.8473 24.3657 14.4082 24.5837C14.9511 24.7947 15.5714 24.9385 16.4797 24.9801C17.3899 25.0216 17.6806 25.0317 19.9979 25.0317C22.3156 25.0317 22.6056 25.0216 23.5158 24.9801C24.4243 24.9385 25.0451 24.7947 25.588 24.5837C26.1491 24.3657 26.6245 24.0735 27.0986 23.5988C27.5733 23.1245 27.8648 22.6484 28.0835 22.0873C28.2933 21.5445 28.4373 20.9243 28.48 20.0162C28.5208 19.1059 28.5315 18.8158 28.5315 16.4983C28.5315 14.1807 28.5208 13.8899 28.48 12.9797C28.4373 12.0712 28.2933 11.4511 28.0835 10.9085C27.8648 10.3473 27.5733 9.87117 27.0986 9.39686C26.6239 8.92219 26.1493 8.63063 25.5875 8.41285C25.0435 8.20182 24.423 8.058 23.5146 8.0164C22.6043 7.97498 22.3146 7.96484 19.9963 7.96484H19.999ZM19.2334 9.50261C19.4606 9.50226 19.7141 9.50261 19.9989 9.50261C22.2774 9.50261 22.5474 9.51079 23.4472 9.55168C24.2792 9.58973 24.7307 9.72875 25.0315 9.84555C25.4298 10.0002 25.7137 10.1851 26.0122 10.4838C26.3108 10.7824 26.4957 11.0669 26.6507 11.4651C26.7675 11.7656 26.9067 12.2171 26.9446 13.0491C26.9855 13.9487 26.9944 14.2189 26.9944 16.4963C26.9944 18.7736 26.9855 19.0439 26.9446 19.9434C26.9066 20.7754 26.7675 21.227 26.6507 21.5275C26.4961 21.9257 26.3108 22.2092 26.0122 22.5077C25.7135 22.8064 25.4299 22.9913 25.0315 23.146C24.7311 23.2633 24.2792 23.402 23.4472 23.44C22.5476 23.4809 22.2774 23.4898 19.9989 23.4898C17.7203 23.4898 17.4503 23.4809 16.5507 23.44C15.7187 23.4016 15.2672 23.2626 14.9662 23.1458C14.568 22.9911 14.2835 22.8062 13.9848 22.5076C13.6862 22.2089 13.5013 21.9251 13.3462 21.5267C13.2294 21.2263 13.0902 20.7747 13.0524 19.9427C13.0115 19.0432 13.0033 18.7729 13.0033 16.4942C13.0033 14.2154 13.0115 13.9466 13.0524 13.047C13.0904 12.215 13.2294 11.7634 13.3462 11.4626C13.5009 11.0644 13.6862 10.78 13.9848 10.4813C14.2835 10.1826 14.568 9.99773 14.9662 9.84271C15.267 9.72537 15.7187 9.5867 16.5507 9.54848C17.3379 9.51292 17.643 9.50226 19.2334 9.50048V9.50261ZM24.554 10.9195C23.9887 10.9195 23.53 11.3777 23.53 11.9432C23.53 12.5085 23.9887 12.9672 24.554 12.9672C25.1194 12.9672 25.578 12.5085 25.578 11.9432C25.578 11.3778 25.1194 10.9195 24.554 10.9195ZM19.999 12.116C17.5789 12.116 15.6167 14.0781 15.6167 16.4982C15.6167 18.9184 17.5789 20.8796 19.999 20.8796C22.4191 20.8796 24.3806 18.9184 24.3806 16.4982C24.3806 14.0781 22.4191 12.116 19.999 12.116ZM19.999 13.6538C21.5698 13.6538 22.8434 14.9272 22.8434 16.4982C22.8434 18.0691 21.5698 19.3427 19.999 19.3427C18.4279 19.3427 17.1545 18.0691 17.1545 16.4982C17.1545 14.9272 18.4279 13.6538 19.999 13.6538Z" fill="white"/>
</g>
<defs>
<filter id="filter0_d_48_639" x="0" y="0.503906" width="40" height="40" filterUnits="userSpaceOnUse" color-interpolation-filters="sRGB">
<feFlood flood-opacity="0" result="BackgroundImageFix"/>
<feColorMatrix in="SourceAlpha" type="matrix" values="0 0 0 0 0 0 0 0 0 0 0 0 0 0 0 0 0 0 127 0" result="hardAlpha"/>
<feOffset dy="4"/>
<feGaussianBlur stdDeviation="2"/>
<feComposite in2="hardAlpha" operator="out"/>
<feColorMatrix type="matrix" values="0 0 0 0 0 0 0 0 0 0 0 0 0 0 0 0 0 0 0.25 0"/>
<feBlend mode="normal" in2="BackgroundImageFix" result="effect1_dropShadow_48_639"/>
<feBlend mode="normal" in="SourceGraphic" in2="effect1_dropShadow_48_639" result="shape"/>
</filter>
</defs>
</svg>
