<svg width="113" height="34" viewBox="0 0 113 34" fill="none" xmlns="http://www.w3.org/2000/svg">
<path d="M36.0241 10.7461H31.4606V23.8007H36.0241C40.1948 23.8007 42.9067 21.2384 42.9067 17.2921C42.9067 13.3271 40.1948 10.7461 36.0241 10.7461ZM34.079 21.5751V12.9531H35.9306C38.6799 12.9531 40.2322 14.5802 40.2322 17.2921C40.2322 20.0041 38.6799 21.5751 35.9306 21.5751H34.079Z" fill="white"/>
<path d="M49.318 15.4219C50.6646 15.4219 51.7494 16.2822 51.7868 17.6475H46.8679C47.0737 16.2261 48.0649 15.4219 49.318 15.4219ZM54.2369 20.5464H51.4127C51.0761 21.2384 50.4589 21.7995 49.3367 21.7995C48.0275 21.7995 46.9802 20.9392 46.8492 19.4056H54.4239C54.48 19.0689 54.4987 18.7323 54.4987 18.3956C54.4987 15.3096 52.3853 13.271 49.3928 13.271C46.3256 13.271 44.1934 15.347 44.1934 18.62C44.1934 21.8743 46.3817 23.9691 49.3928 23.9691C51.9551 23.9691 53.6758 22.4541 54.2369 20.5464Z" fill="white"/>
<path d="M56.6904 23.8007H59.3463V15.5902H61.1604V13.4394H59.3463V13.0092C59.3463 11.8496 59.7764 11.4381 61.0482 11.4756V9.26862C58.1306 9.1938 56.6904 10.3721 56.6904 12.9157V13.4394H55.5122V15.5902H56.6904V23.8007Z" fill="white"/>
<path d="M62.8573 23.8007H65.4757V13.4394H62.8573V23.8007ZM64.1852 12.205C65.1016 12.205 65.7936 11.5317 65.7936 10.6713C65.7936 9.811 65.1016 9.1377 64.1852 9.1377C63.25 9.1377 62.5767 9.811 62.5767 10.6713C62.5767 11.5317 63.25 12.205 64.1852 12.205Z" fill="white"/>
<path d="M75.6373 10.7274H68.0627V23.8007H75.6373V21.6686H70.6811V18.2086H75.0762V16.1326H70.6811V12.8596H75.6373V10.7274Z" fill="white"/>
<path d="M77.3435 18.5826C77.3435 21.8182 79.4382 23.9691 82.0754 23.9691C83.7025 23.9691 84.8621 23.221 85.4793 22.2671V23.8007H88.1351V9.96062H85.4793V14.8795C84.7686 13.9069 83.4594 13.271 82.0941 13.271C79.4383 13.271 77.3435 15.347 77.3435 18.5826ZM85.498 18.62C85.498 20.5838 84.1888 21.6686 82.7487 21.6686C81.3459 21.6686 80.018 20.5464 80.018 18.5826C80.018 16.6188 81.3459 15.5715 82.7487 15.5715C84.1888 15.5715 85.498 16.6562 85.498 18.62Z" fill="white"/>
<path d="M90.0191 18.5826C90.0191 21.8182 92.1138 23.9691 94.7509 23.9691C96.3781 23.9691 97.5564 23.1648 98.1736 22.2671V23.8756C98.1736 25.8019 97.0514 26.6249 95.6113 26.6249C94.3021 26.6249 93.3295 26.0077 93.0677 25.0725H90.468C90.7298 27.4478 92.7684 28.9066 95.6861 28.9066C99.09 28.9066 100.811 26.681 100.811 23.8756V13.4394H98.1736V14.9169C97.5564 14.0191 96.3781 13.271 94.7509 13.271C92.1138 13.271 90.0191 15.347 90.0191 18.5826ZM98.1736 18.62C98.1736 20.5838 96.8644 21.6686 95.4242 21.6686C94.0215 21.6686 92.6936 20.5464 92.6936 18.5826C92.6936 16.6188 94.0215 15.5715 95.4242 15.5715C96.8644 15.5715 98.1736 16.6562 98.1736 18.62Z" fill="white"/>
<path d="M107.819 15.4219C109.166 15.4219 110.251 16.2822 110.288 17.6475H105.369C105.575 16.2261 106.566 15.4219 107.819 15.4219ZM112.738 20.5464H109.914C109.577 21.2384 108.96 21.7995 107.838 21.7995C106.529 21.7995 105.481 20.9392 105.35 19.4056H112.925C112.981 19.0689 113 18.7323 113 18.3956C113 15.3096 110.887 13.271 107.894 13.271C104.827 13.271 102.695 15.347 102.695 18.62C102.695 21.8743 104.883 23.9691 107.894 23.9691C110.456 23.9691 112.177 22.4541 112.738 20.5464Z" fill="white"/>
<mask id="path-2-outside-1_2_2076" maskUnits="userSpaceOnUse" x="0" y="-0.375977" width="26" height="35" fill="black">
<rect fill="white" y="-0.375977" width="26" height="35"/>
<path fill-rule="evenodd" clip-rule="evenodd" d="M6.52535 17.0003C6.56383 16.9619 6.60251 16.9237 6.64139 16.8856C6.60254 16.9237 6.56389 16.962 6.52545 17.0005C6.52538 17.0004 6.52531 17.0004 6.52524 17.0003C3.73197 19.7966 2 23.6702 2 27.9422C2 29.0195 2.11055 30.0672 2.31691 31.0854C4.21103 31.9117 6.30414 32.3766 8.5078 32.3766C15.8993 32.3766 22.075 27.1907 23.6013 20.2487C23.6138 20.2433 23.6262 20.2379 23.6386 20.2324C23.845 19.2142 23.9555 18.1665 23.9555 17.0893C23.9555 15.9407 23.8308 14.8289 23.5959 13.7539H23.6019C22.0763 6.81093 15.9001 1.62402 8.50791 1.62402C6.30425 1.62402 4.21114 2.08147 2.31702 2.91522C2.11066 3.93341 2.00011 4.98113 2.00011 6.05835C2.00011 10.3304 3.73208 14.2039 6.52535 17.0003Z"/>
</mask>
<path fill-rule="evenodd" clip-rule="evenodd" d="M6.52535 17.0003C6.56383 16.9619 6.60251 16.9237 6.64139 16.8856C6.60254 16.9237 6.56389 16.962 6.52545 17.0005C6.52538 17.0004 6.52531 17.0004 6.52524 17.0003C3.73197 19.7966 2 23.6702 2 27.9422C2 29.0195 2.11055 30.0672 2.31691 31.0854C4.21103 31.9117 6.30414 32.3766 8.5078 32.3766C15.8993 32.3766 22.075 27.1907 23.6013 20.2487C23.6138 20.2433 23.6262 20.2379 23.6386 20.2324C23.845 19.2142 23.9555 18.1665 23.9555 17.0893C23.9555 15.9407 23.8308 14.8289 23.5959 13.7539H23.6019C22.0763 6.81093 15.9001 1.62402 8.50791 1.62402C6.30425 1.62402 4.21114 2.08147 2.31702 2.91522C2.11066 3.93341 2.00011 4.98113 2.00011 6.05835C2.00011 10.3304 3.73208 14.2039 6.52535 17.0003Z" fill="url(#paint0_linear_2_2076)"/>
<path d="M6.64139 16.8856L7.62956 17.8938L5.65452 15.8762L6.64139 16.8856ZM6.52535 17.0003L5.5266 17.9979L6.52404 18.9965L7.52279 17.9993L6.52535 17.0003ZM6.52545 17.0005L5.53076 18.0022L6.52947 18.9939L7.52417 17.9982L6.52545 17.0005ZM6.52524 17.0003L7.51994 15.9986L6.5212 15.0068L5.52649 16.0026L6.52524 17.0003ZM2.31691 31.0854L0.933376 31.3658L1.07926 32.0856L1.75242 32.3793L2.31691 31.0854ZM23.6013 20.2487L23.0361 18.9552L22.377 19.2431L22.2226 19.9456L23.6013 20.2487ZM23.6386 20.2324L24.2073 21.5244L24.8768 21.2297L25.0221 20.5128L23.6386 20.2324ZM23.5959 13.7539V12.3422H21.8425L22.2168 14.0552L23.5959 13.7539ZM23.6019 13.7539V15.1655H25.3574L24.9807 13.4509L23.6019 13.7539ZM2.31702 2.91522L1.7483 1.62318L1.07879 1.91788L0.933486 2.63481L2.31702 2.91522ZM5.65452 15.8762C5.6121 15.9177 5.5699 15.9594 5.52792 16.0013L7.52279 17.9993C7.55776 17.9643 7.59292 17.9296 7.62826 17.895L5.65452 15.8762ZM7.52417 17.9982C7.55912 17.9632 7.59425 17.9284 7.62956 17.8938L5.65322 15.8775C5.61083 15.9191 5.56867 15.9608 5.52672 16.0028L7.52417 17.9982ZM7.52014 15.9988L7.51994 15.9986L5.53055 18.002L5.53076 18.0022L7.52014 15.9988ZM5.52649 16.0026C2.47927 19.0532 0.588331 23.2816 0.588331 27.9422H3.41167C3.41167 24.0589 4.98468 20.5401 7.524 17.9979L5.52649 16.0026ZM0.588331 27.9422C0.588331 29.1168 0.708938 30.2584 0.933376 31.3658L3.70045 30.805C3.51217 29.8759 3.41167 28.9222 3.41167 27.9422H0.588331ZM1.75242 32.3793C3.81892 33.2808 6.10378 33.7882 8.5078 33.7882V30.9649C6.5045 30.9649 4.60314 30.5426 2.88141 29.7915L1.75242 32.3793ZM8.5078 33.7882C16.5767 33.7882 23.3145 28.1268 24.9801 20.5519L22.2226 19.9456C20.8354 26.2545 15.2219 30.9649 8.5078 30.9649V33.7882ZM23.0699 18.9403C23.0586 18.9453 23.0473 18.9503 23.0361 18.9552L24.1665 21.5423C24.1802 21.5363 24.1938 21.5304 24.2073 21.5244L23.0699 18.9403ZM22.5438 17.0893C22.5438 18.0692 22.4433 19.023 22.2551 19.952L25.0221 20.5128C25.2466 19.4054 25.3672 18.2638 25.3672 17.0893H22.5438ZM22.2168 14.0552C22.4304 15.033 22.5438 16.0438 22.5438 17.0893H25.3672C25.3672 15.8376 25.2311 14.6249 24.975 13.4526L22.2168 14.0552ZM23.6019 12.3422H23.5959V15.1655H23.6019V12.3422ZM8.50791 3.03569C15.2227 3.03569 20.8366 7.74702 22.2231 14.0568L24.9807 13.4509C23.3159 5.87484 16.5776 0.212355 8.50791 0.212355V3.03569ZM2.88575 4.20725C4.60188 3.45185 6.50143 3.03569 8.50791 3.03569V0.212355C6.10707 0.212355 3.8204 0.711095 1.7483 1.62318L2.88575 4.20725ZM3.41178 6.05835C3.41178 5.07842 3.51228 4.12464 3.70056 3.19562L0.933486 2.63481C0.709048 3.74219 0.588442 4.88383 0.588442 6.05835H3.41178ZM7.52411 16.0026C4.98479 13.4605 3.41178 9.9417 3.41178 6.05835H0.588442C0.588442 10.719 2.47938 14.9473 5.5266 17.9979L7.52411 16.0026Z" fill="white" mask="url(#path-2-outside-1_2_2076)"/>
<path d="M23.6386 20.2316C23.845 19.2134 23.9556 18.1657 23.9556 17.0885C23.9556 15.9374 23.8303 14.8233 23.5944 13.7461C21.7077 12.9271 19.6293 12.4771 17.4478 12.4771C13.1805 12.4771 9.31854 14.2036 6.52527 16.9999C9.31854 19.7963 13.1805 21.5228 17.4478 21.5228C19.6514 21.5228 21.7445 21.0653 23.6386 20.2316Z" fill="url(#paint1_radial_2_2076)"/>
<path d="M23.587 13.7531C21.7003 12.9341 19.6219 12.4841 17.4404 12.4841C13.1804 12.4841 9.31851 14.2106 6.52524 16.9996C3.73197 14.2032 2 10.3296 2 6.05762C2 4.98039 2.11055 3.93268 2.31691 2.91448C4.21103 2.08074 6.30414 1.62329 8.5078 1.62329C15.9 1.62329 22.0762 6.8102 23.6018 13.7531H23.587Z" fill="url(#paint2_linear_2_2076)"/>
<path d="M23.587 20.2459C21.7003 21.0649 19.6219 21.515 17.4404 21.515C13.1804 21.515 9.31851 19.7885 6.52524 16.9995C3.73197 19.7959 2 23.6694 2 27.9415C2 29.0187 2.11055 30.0664 2.31691 31.0846C4.21103 31.9109 6.30414 32.3758 8.5078 32.3758C15.9 32.3758 22.0762 27.1889 23.6018 20.2459H23.587Z" fill="url(#paint3_linear_2_2076)"/>
<defs>
<linearGradient id="paint0_linear_2_2076" x1="2.6633" y1="26.5625" x2="18.1783" y2="23.8016" gradientUnits="userSpaceOnUse">
<stop stop-color="#2D5CF3"/>
<stop offset="1" stop-color="#0034AA"/>
</linearGradient>
<radialGradient id="paint1_radial_2_2076" cx="0" cy="0" r="1" gradientUnits="userSpaceOnUse" gradientTransform="translate(9.62808 16.9704) scale(15.3298 12.9882)">
<stop stop-color="#3C69FF"/>
<stop offset="1" stop-color="#0034AA"/>
</radialGradient>
<linearGradient id="paint2_linear_2_2076" x1="5.7956" y1="4.31635" x2="10.3002" y2="16.9669" gradientUnits="userSpaceOnUse">
<stop stop-color="#2D5AF1"/>
<stop offset="1" stop-color="#0034AA"/>
</linearGradient>
<linearGradient id="paint3_linear_2_2076" x1="2.66331" y1="26.5617" x2="18.1784" y2="23.8008" gradientUnits="userSpaceOnUse">
<stop stop-color="#2D5CF3"/>
<stop offset="1" stop-color="#0034AA"/>
</linearGradient>
</defs>
</svg>
