<svg width="32" height="33" viewBox="0 0 32 33" fill="none" xmlns="http://www.w3.org/2000/svg">
<path opacity="0.1" fill-rule="evenodd" clip-rule="evenodd" d="M0 16.5039C0 7.66735 7.16344 0.503906 16 0.503906C24.8366 0.503906 32 7.66735 32 16.5039C32 25.3405 24.8366 32.5039 16 32.5039C7.16344 32.5039 0 25.3405 0 16.5039Z" fill="white"/>
<path d="M11.125 11C10.3207 11 9.52418 11.1552 8.78106 11.4567C8.03794 11.7583 7.36273 12.2002 6.79397 12.7574C6.22521 13.3145 5.77405 13.9759 5.46624 14.7039C5.15843 15.4319 5 16.2121 5 17C5 17.7879 5.15843 18.5681 5.46624 19.2961C5.77405 20.0241 6.22521 20.6855 6.79397 21.2426C7.36273 21.7998 8.03794 22.2417 8.78106 22.5433C9.52418 22.8448 10.3207 23 11.125 23C11.9293 23 12.7258 22.8448 13.4689 22.5433C14.2121 22.2417 14.8873 21.7998 15.456 21.2426C16.0248 20.6855 16.476 20.0241 16.7838 19.2961C17.0916 18.5681 17.25 17.7879 17.25 17C17.25 16.2121 17.0916 15.4319 16.7838 14.7039C16.476 13.9759 16.0248 13.3145 15.456 12.7574C14.8873 12.2002 14.2121 11.7583 13.4689 11.4567C12.7258 11.1552 11.9293 11 11.125 11V11ZM20.75 11.4286C20.0538 11.4286 19.3861 12.0156 18.8938 13.0604C18.4016 14.1053 18.125 15.5224 18.125 17C18.125 18.4776 18.4016 19.8947 18.8938 20.9396C19.3861 21.9844 20.0538 22.5714 20.75 22.5714C21.4462 22.5714 22.1139 21.9844 22.6062 20.9396C23.0984 19.8947 23.375 18.4776 23.375 17C23.375 15.5224 23.0984 14.1053 22.6062 13.0604C22.1139 12.0156 21.4462 11.4286 20.75 11.4286ZM25.125 12.7143C24.8929 12.7143 24.6704 13.1658 24.5063 13.9695C24.3422 14.7733 24.25 15.8634 24.25 17C24.25 18.1366 24.3422 19.2267 24.5063 20.0305C24.6704 20.8342 24.8929 21.2857 25.125 21.2857C25.3571 21.2857 25.5796 20.8342 25.7437 20.0305C25.9078 19.2267 26 18.1366 26 17C26 15.8634 25.9078 14.7733 25.7437 13.9695C25.5796 13.1658 25.3571 12.7143 25.125 12.7143Z" fill="white"/>
</svg>
