<svg width="28" height="32" viewBox="0 0 28 32" fill="none" xmlns="http://www.w3.org/2000/svg">
<path d="M4.71931 32.0001L5.73331 27.2681H7.86531L6.85131 32.0001H9.58131L10.6213 27.2681H13.3253V24.5901H11.1153L11.7393 21.8081H14.3653V19.0521H12.2333L13.2473 14.4241H10.5173L9.50331 19.0521H7.37131L8.38531 14.4241H5.62931L4.61531 19.0521H1.88531V21.8081H4.09531L3.49731 24.5901H0.845312V27.2681H2.97731L1.96331 32.0001H4.71931ZM6.85131 21.8081H8.98331L8.38531 24.5901H6.25331L6.85131 21.8081ZM27.5514 32.0001V0.228119H15.0024V5.86812H21.0184V32.0001H27.5514Z" fill="url(#paint0_linear_2_1894)"/>
<defs>
<linearGradient id="paint0_linear_2_1894" x1="24.8065" y1="-8.49988" x2="6.69218" y2="32.4349" gradientUnits="userSpaceOnUse">
<stop stop-color="#58C4FA"/>
<stop offset="1" stop-color="#4452FE"/>
</linearGradient>
</defs>
</svg>
