<svg width="40" height="40" viewBox="0 0 40 40" fill="none" xmlns="http://www.w3.org/2000/svg">
<path d="M15.5493 19.1667H19.166C21.1551 19.1667 23.0628 19.9568 24.4693 21.3634C25.8758 22.7699 26.666 24.6775 26.666 26.6667H14.9977L14.9993 28.3333H28.3327V26.6667C28.3274 24.8933 27.8151 23.1584 26.856 21.6667H31.666C33.2415 21.6662 34.7847 22.1124 36.1169 22.9534C37.4491 23.7944 38.5156 24.9958 39.1927 26.4183C35.251 31.62 28.8694 35 21.666 35C17.0644 35 13.166 34.0167 9.99935 32.2917V16.785C12.027 17.0755 13.9418 17.8971 15.5493 19.1667ZM8.33268 31.6667C8.33268 32.1087 8.15709 32.5326 7.84453 32.8452C7.53197 33.1577 7.10804 33.3333 6.66602 33.3333H3.33268C2.89065 33.3333 2.46673 33.1577 2.15417 32.8452C1.84161 32.5326 1.66602 32.1087 1.66602 31.6667V16.6667C1.66602 16.2246 1.84161 15.8007 2.15417 15.4882C2.46673 15.1756 2.89065 15 3.33268 15H6.66602C7.10804 15 7.53197 15.1756 7.84453 15.4882C8.15709 15.8007 8.33268 16.2246 8.33268 16.6667V31.6667Z" fill="#58C0FB"/>
</svg>
