<svg width="40" height="40" viewBox="0 0 40 40" fill="none" xmlns="http://www.w3.org/2000/svg">
<g clip-path="url(#clip0_97_1010)">
<path opacity="0.6" fill-rule="evenodd" clip-rule="evenodd" d="M20.022 0.906997C17.4642 1.04595 14.9469 1.71295 12.7643 2.83007C10.6094 3.93306 8.94066 5.35786 7.64889 7.19777C6.75628 8.46918 6.11487 9.91191 5.83417 11.2797C5.66869 12.086 5.62981 12.4951 5.63135 13.4134C5.63351 14.6719 5.77256 15.5859 6.15885 16.88C6.30585 17.3725 6.327 17.4819 6.327 17.7502C6.327 18.315 6.13041 19.0375 5.76726 19.8074C5.66787 20.0181 5.3837 20.5615 5.13581 21.0148C4.41997 22.3239 4.20508 22.8961 4.20508 23.4928C4.20508 24.3569 4.66201 24.9 5.75959 25.3404C6.01898 25.4445 6.07415 25.4807 6.12634 25.5814C6.16012 25.6466 6.24263 26.0157 6.30971 26.4016C6.64772 28.3455 6.7189 28.6299 7.04633 29.3449C7.46096 30.2501 7.5048 30.4688 7.50959 31.655C7.5139 32.7232 7.52818 32.8184 7.75265 33.2781C7.8427 33.4625 7.94825 33.6039 8.13717 33.7933C8.76662 34.4244 9.40187 34.5596 11.7516 34.5626C12.7792 34.5638 13.0632 34.5533 13.4628 34.4989C14.0402 34.4203 14.821 34.409 15.0885 34.4754C15.6168 34.6066 16.0055 34.9712 16.4413 35.7446C16.5802 35.991 17.9096 38.722 18.0533 39.0561C18.0796 39.1173 18.1166 39.1673 18.1354 39.1673C18.1543 39.1673 18.2503 39.1228 18.3489 39.0684C18.4474 39.0139 19.2211 38.6112 20.0681 38.1733C20.9152 37.7355 22.0318 37.1583 22.5494 36.8907C23.0671 36.6231 24.122 36.0767 24.8938 35.6764C25.6656 35.2761 26.7436 34.7178 27.2895 34.4357C30.267 32.8966 31.2182 32.4034 31.4704 32.2674L31.7497 32.1168L31.7002 31.9047C31.3477 30.3935 31.3005 30.0809 31.3012 29.2593C31.3018 28.5231 31.351 28.1255 31.5345 27.3744C31.8269 26.1772 32.1412 25.428 33.4139 22.8935C33.9621 21.8018 34.5279 20.6384 34.6712 20.3083C35.1496 19.2061 35.4586 18.1917 35.6351 17.1438C35.7899 16.2243 35.8115 15.9337 35.8105 14.7823C35.8095 13.5751 35.7628 13.0793 35.5534 12.056C35.0008 9.35422 33.4877 6.70614 31.4136 4.81126C29.8568 3.38892 28.0528 2.32629 26.0917 1.6765C24.249 1.06597 22.1033 0.793954 20.022 0.906997ZM22.7133 5.69063C25.3851 6.10645 27.7379 7.55401 29.3047 9.74623C30.258 11.08 30.8861 12.7312 31.0769 14.4059C31.1321 14.8902 31.1321 16.0777 31.0769 16.562C30.8704 18.3737 30.1719 20.104 29.0692 21.5354C28.7158 21.9942 27.8706 22.8586 27.4435 23.1982C25.9069 24.42 24.072 25.1599 22.1248 25.343C21.5732 25.3948 20.3382 25.3661 19.8457 25.2898C19.3336 25.2106 18.7784 25.0829 18.333 24.9418C17.8547 24.7904 17.8056 24.7955 17.1841 25.0613C16.1763 25.4924 15.3924 25.6826 14.3394 25.7516C13.6392 25.7974 12.8934 25.7524 12.7643 25.6564C12.5701 25.5121 12.5901 25.4721 13.3929 24.396C13.7988 23.852 14.1709 23.3263 14.2199 23.2277C14.2967 23.073 14.3071 23.0144 14.2962 22.7977L14.2835 22.5468L13.9859 22.2239C11.9791 20.0467 11.0422 17.1442 11.4126 14.2519C11.6517 12.3847 12.3726 10.6959 13.5603 9.22085C13.8419 8.87114 14.6647 8.05352 15.02 7.77035C16.3076 6.74416 17.9672 5.99077 19.5092 5.73245C20.209 5.6152 20.4747 5.59774 21.3858 5.60903C22.0558 5.61735 22.3641 5.63628 22.7133 5.69063Z" fill="#49C1BF"/>
<path d="M24.1969 9.2694C24.2297 9.23133 24.3109 9.18585 24.3774 9.16836C24.6424 9.0985 24.7169 9.16146 25.0628 9.74813C25.9607 11.2707 26.404 12.0705 26.3925 12.1474C26.3856 12.1939 26.3329 12.2669 26.2754 12.3097L26.1709 12.3875L25.7142 12.2254C25.4631 12.1363 25.2353 12.0633 25.2081 12.0633C25.1782 12.0633 25.1401 12.1635 25.1119 12.3169C24.9978 12.936 24.6688 13.7056 24.2873 14.246C23.9235 14.7612 23.3258 15.2984 22.7305 15.6451C22.3683 15.856 21.7392 16.0998 20.6465 16.4525C19.4915 16.8254 19.3133 16.8993 18.8901 17.1802C18.5867 17.3816 18.2057 17.7402 18.2057 17.8245C18.2057 17.8468 18.2699 17.949 18.3484 18.0516C19.297 19.2923 18.2168 21.0943 16.6681 20.8546C15.7093 20.7062 15.0178 19.7714 15.181 18.8445C15.3151 18.0836 15.9564 17.4397 16.6516 17.3679C16.8766 17.3447 16.8784 17.3434 17.0398 17.1053C17.3806 16.6024 18.0257 16.0702 18.6958 15.7391C19.0836 15.5475 19.429 15.4228 20.1268 15.2226C21.1059 14.9417 21.7498 14.6712 22.2635 14.3248C22.576 14.114 22.9962 13.7077 23.2096 13.4098C23.5231 12.972 23.8892 12.0633 23.7521 12.0633C23.7232 12.0633 23.4953 12.1358 23.2457 12.2244C22.8136 12.3777 22.7872 12.3824 22.6949 12.3219C22.5082 12.1996 22.5263 12.1113 22.8537 11.5469C23.8845 9.77055 24.1436 9.33122 24.1969 9.2694Z" fill="#49C1BF"/>
<path d="M17.1857 10.0884C17.4987 9.7782 17.7902 9.50514 17.8333 9.48169C17.9471 9.41975 18.2699 9.4272 18.4006 9.49482C18.6403 9.61875 18.7762 9.94608 18.7047 10.2275C18.67 10.3645 18.5705 10.4888 18.1552 10.914L17.648 11.4332L17.7673 11.5817C17.8328 11.6633 18.0566 11.8977 18.2645 12.1026C18.7003 12.5319 18.7546 12.6175 18.7544 12.8749C18.7541 13.2888 18.3738 13.5833 17.9775 13.4766C17.8587 13.4446 17.6864 13.3082 17.2593 12.9079L16.6974 12.3812L16.1264 12.9443C15.5021 13.56 15.4134 13.6099 15.1065 13.518C14.6603 13.3843 14.507 12.921 14.779 12.5285C14.8386 12.4425 15.0783 12.1892 15.3116 11.9656C15.5449 11.742 15.7358 11.5443 15.7358 11.5264C15.7358 11.5084 15.5046 11.2647 15.2221 10.9847C14.9396 10.7047 14.6837 10.4188 14.6536 10.3494C14.5274 10.0586 14.6262 9.75585 14.9094 9.56496C15.0758 9.45284 15.3525 9.44558 15.522 9.54893C15.5877 9.58896 15.8608 9.85363 16.1289 10.1371L16.6165 10.6525L17.1857 10.0884Z" fill="#49C1BF"/>
<path d="M25.7626 18.3337C26.3712 17.7357 26.396 17.715 26.5832 17.6476C26.8509 17.5514 27.1436 17.6668 27.2908 17.9267C27.3871 18.0967 27.4077 18.3662 27.335 18.5054C27.3104 18.5525 27.0722 18.8154 26.8057 19.0896C26.5392 19.3639 26.3212 19.6042 26.3212 19.6238C26.3212 19.6433 26.5501 19.8975 26.83 20.1886C27.1098 20.4797 27.3568 20.7654 27.3789 20.8234C27.5191 21.1924 27.3266 21.5668 26.9433 21.67C26.6597 21.7463 26.5401 21.6796 25.9231 21.1007L25.3607 20.573L24.8314 21.0973C24.2894 21.6342 24.1346 21.747 23.9399 21.747C23.7731 21.747 23.491 21.5879 23.3909 21.4374C23.2846 21.2774 23.2735 21.0168 23.3651 20.8335C23.3996 20.7645 23.651 20.4822 23.9238 20.2061L24.4197 19.7042L23.9337 19.2291C23.332 18.6409 23.2632 18.5441 23.2632 18.2863C23.2632 17.9278 23.5162 17.6697 23.8677 17.6697C23.9686 17.6697 24.1012 17.6955 24.1624 17.7272C24.2236 17.7588 24.4962 18.0187 24.7682 18.3048L25.2629 18.8249L25.7626 18.3337Z" fill="#49C1BF"/>
</g>
<defs>
<clipPath id="clip0_97_1010">
<rect width="40" height="40" fill="white"/>
</clipPath>
</defs>
</svg>
