<svg width="40" height="40" viewBox="0 0 40 40" fill="none" xmlns="http://www.w3.org/2000/svg">
<path opacity="0.5" fill-rule="evenodd" clip-rule="evenodd" d="M11.3651 0.0361279C10.1471 0.175209 8.59608 0.876941 7.60704 1.73637C6.70432 2.52077 5.99302 3.56046 5.59615 4.67556C4.54254 7.6359 5.68681 10.9533 8.3681 12.7117C8.85383 13.0303 9.66276 13.4125 10.2129 13.5834C10.9058 13.7986 11.3198 13.8495 12.3724 13.8487C13.4343 13.848 13.7236 13.8044 14.6251 13.5096C17.5167 12.5641 19.4317 9.90479 19.4257 6.84325C19.4218 4.81089 18.3718 2.707 16.7644 1.51091C15.8565 0.835302 14.7772 0.327067 13.8542 0.140469C13.2049 0.0091853 12.0315 -0.0400053 11.3651 0.0361279ZM3.85737 14.6749C2.49663 14.9289 1.35707 15.838 0.70834 17.1872C0.330004 17.974 0.174103 18.5671 0.0503425 19.6904C-0.0184042 20.3145 -0.0161084 27.4402 0.0533478 29.0999C0.102935 30.2843 0.15365 30.6768 0.351417 31.4064C0.769531 32.9489 1.49014 33.8169 2.88239 34.4549C3.26941 34.6323 4.11954 34.8595 4.71848 34.9455C5.18714 35.0128 18.5696 35.0247 18.6802 34.9579C18.7398 34.9219 18.716 34.8446 18.4795 34.3055C18.0181 33.2538 17.7539 32.3681 17.6026 31.3655C17.5013 30.695 17.5031 28.8289 17.6056 28.0589C17.8808 25.993 18.7533 24.1192 20.2001 22.4867C21.3236 21.2191 22.4968 20.2984 23.9137 19.5725C24.1662 19.4432 24.4057 19.2999 24.4459 19.2542C24.5494 19.1364 24.5376 18.9299 24.3968 18.3958C24.1882 17.6045 23.9092 16.9831 23.5071 16.4143C23.2265 16.0173 22.6082 15.4499 22.1892 15.2049C21.3728 14.7275 20.3073 14.5432 19.3282 14.7102C18.4363 14.8623 18.1456 15.0975 17.2598 16.3838C16.6189 17.3145 15.9756 18.3725 15.212 19.7517C15.0441 20.0548 14.8406 20.4112 14.7597 20.5438L14.6126 20.7848L14.5371 20.6936C14.4955 20.6435 14.3663 20.43 14.2498 20.2194L14.038 19.8363L14.4823 19.1577C14.9674 18.4166 15.2525 17.9033 15.2525 17.7707C15.2525 17.6109 15.0143 17.3227 14.3925 16.7304C13.3356 15.7235 12.6167 15.1287 12.389 15.0728C12.1449 15.0129 11.7331 15.3268 10.4655 16.5391C9.63555 17.3328 9.40877 17.6013 9.40898 17.79C9.40919 17.9467 9.63117 18.3473 10.1511 19.1296L10.6195 19.8342L10.3911 20.2796C10.2655 20.5246 10.1414 20.7379 10.1154 20.7536C10.0256 20.8079 9.8746 20.5854 9.32471 19.5884C7.71766 16.6746 6.75804 15.2994 6.10422 14.9732C5.65747 14.7503 5.32058 14.6815 4.6087 14.6678C4.25286 14.661 3.91476 14.6641 3.85737 14.6749Z" fill="#49C1BF"/>
<path fill-rule="evenodd" clip-rule="evenodd" d="M28.6351 19.5195C27.9409 19.5493 27.3684 19.6464 26.6001 19.8647C23.7287 20.6808 21.3804 22.6135 20.0582 25.2486C19.5708 26.22 19.2828 27.1167 19.1143 28.1878C19.0074 28.8668 19.0059 30.5053 19.1114 31.2086C19.3266 32.6424 19.7416 33.8149 20.4319 34.9393C21.7709 37.1205 23.7942 38.72 26.2142 39.5105C27.4727 39.9216 28.3324 40.0342 29.8874 39.9917C30.9314 39.9632 31.4363 39.899 32.1771 39.7004C34.0347 39.2025 35.517 38.3604 36.8816 37.0276C37.8162 36.1147 38.3402 35.4278 38.8762 34.4129C39.3793 33.4604 39.812 32.1474 39.9255 31.229C40.0533 30.1961 40.0118 28.5723 39.8363 27.7387C39.5065 26.1719 38.8293 24.7361 37.8048 23.432C37.4254 22.949 36.3566 21.9176 35.8546 21.55C34.5087 20.5645 32.7907 19.8247 31.3483 19.6095C30.8171 19.5302 29.4459 19.4848 28.6351 19.5195ZM29.9624 22.6862C30.1552 22.8633 30.2004 23.0147 30.2004 23.4829V23.9038L30.5334 23.9551C31.1677 24.0527 31.982 24.3714 32.4688 24.7126C33.0223 25.1006 33.5467 25.7153 33.8315 26.31C33.9973 26.656 34.0589 26.8641 34.1032 27.2285C34.1269 27.4229 34.1173 27.472 34.0321 27.5952C33.8993 27.7872 33.6404 27.9306 33.47 27.9065C33.1731 27.8646 33.0501 27.6957 32.8481 27.0527C32.7149 26.6285 32.5173 26.316 32.1786 25.9938C31.6524 25.4932 30.8515 25.1057 30.3429 25.1057H30.2109L30.1854 25.4629C30.1714 25.6594 30.1476 26.5206 30.1325 27.3769L30.1049 28.9337L30.3301 28.9639C30.7277 29.0171 31.6411 29.2595 32.022 29.4128C32.958 29.7896 33.5883 30.3628 33.8778 31.1006C34.0516 31.5435 34.0291 32.7802 33.8372 33.3361C33.7265 33.6566 33.5084 33.9835 33.1673 34.3401C32.5168 35.0201 31.9104 35.3159 30.7543 35.5175C30.4841 35.5646 30.223 35.6108 30.1741 35.6201C30.0941 35.6352 30.0823 35.6729 30.0573 35.9946C30.012 36.5774 29.9619 36.7637 29.8189 36.8815C29.7196 36.9632 29.6475 36.9849 29.476 36.9849C29.0607 36.9849 28.9475 36.8024 28.9161 36.0828L28.8955 35.6092L28.3066 35.4753C26.9465 35.166 26.339 34.8893 25.811 34.3385C25.3434 33.8507 24.9912 33.1169 24.951 32.5465C24.9345 32.3124 24.9449 32.2295 25.0015 32.145C25.1503 31.923 25.6234 31.8465 25.836 32.01C25.9614 32.1065 25.9979 32.1822 26.1153 32.59C26.3303 33.3368 26.7958 33.8146 27.5971 34.111C27.8761 34.2141 28.6867 34.4121 28.8334 34.4128C28.9021 34.4131 28.9064 34.2802 28.9064 32.1883C28.9064 30.9647 28.8996 29.9635 28.8912 29.9635C28.7802 29.9635 27.5311 29.6894 27.289 29.612C26.2664 29.2846 25.5444 28.7346 25.2039 28.0232C25.0896 27.7846 25.0872 27.7642 25.0872 27.041V26.3025L25.2919 25.898C25.4698 25.5466 25.5493 25.4427 25.898 25.1057C26.3313 24.6872 26.696 24.4566 27.2961 24.2219C27.6985 24.0645 28.3827 23.9219 28.7356 23.9219H28.9899L28.9909 23.5443C28.9926 22.9188 29.0778 22.7273 29.4229 22.5736C29.6193 22.4862 29.7816 22.5201 29.9624 22.6862ZM28.3411 25.1052C27.8717 25.209 27.3006 25.4267 27.0214 25.6083C26.3432 26.0494 26.0272 26.9229 26.3026 27.5959C26.437 27.9246 27.0086 28.313 27.6751 28.5286C27.943 28.6153 28.4128 28.7143 28.7725 28.7598L28.9932 28.7878L28.9812 26.9734C28.9683 25.0388 28.9661 25.0197 28.7657 25.0275C28.7168 25.0294 28.5258 25.0644 28.3411 25.1052ZM30.1169 32.2692C30.1169 34.1068 30.1262 34.454 30.1749 34.454C30.321 34.454 30.9616 34.318 31.2492 34.2259C31.916 34.0125 32.3555 33.6584 32.6343 33.1099L32.8092 32.766V32.171C32.8092 31.652 32.798 31.5523 32.7212 31.3901C32.5293 30.9843 32.032 30.6366 31.2698 30.3751C30.9514 30.2658 30.7579 30.2162 30.2108 30.1038L30.1169 30.0845V32.2692Z" fill="#49C1BF"/>
</svg>
