<svg width="40" height="40" viewBox="0 0 40 40" fill="none" xmlns="http://www.w3.org/2000/svg">
<path fill-rule="evenodd" clip-rule="evenodd" d="M11.3651 0.0360058C10.1471 0.175087 8.59608 0.876819 7.60704 1.73625C6.70432 2.52064 5.99302 3.56034 5.59615 4.67544C4.54254 7.63578 5.68681 10.9531 8.3681 12.7116C8.85383 13.0302 9.66276 13.4124 10.2129 13.5833C10.9058 13.7985 11.3198 13.8494 12.3724 13.8486C13.4343 13.8478 13.7236 13.8043 14.6251 13.5095C17.5167 12.564 19.4317 9.90467 19.4257 6.84313C19.4218 4.81076 18.3718 2.70687 16.7644 1.51079C15.8565 0.83518 14.7772 0.326945 13.8542 0.140347C13.2049 0.00906323 12.0315 -0.0401274 11.3651 0.0360058ZM3.85737 14.6747C2.49663 14.9288 1.35707 15.8379 0.70834 17.1871C0.330004 17.9739 0.174103 18.567 0.0503425 19.6903C-0.0184042 20.3144 -0.0161084 27.44 0.0533478 29.0998C0.102936 30.2842 0.15365 30.6767 0.351417 31.4062C0.769531 32.9488 1.49014 33.8167 2.88239 34.4548C3.26941 34.6322 4.11954 34.8593 4.71848 34.9454C5.18714 35.0127 18.5696 35.0246 18.6802 34.9578C18.7398 34.9218 18.716 34.8445 18.4795 34.3054C18.0181 33.2537 17.7539 32.368 17.6026 31.3654C17.5013 30.6948 17.5031 28.8288 17.6056 28.0588C17.8808 25.9929 18.7533 24.1191 20.2001 22.4866C21.3236 21.219 22.4968 20.2983 23.9137 19.5724C24.1662 19.443 24.4057 19.2998 24.4459 19.2541C24.5494 19.1363 24.5376 18.9298 24.3968 18.3957C24.1882 17.6043 23.9092 16.983 23.5071 16.4142C23.2265 16.0172 22.6082 15.4497 22.1892 15.2048C21.3728 14.7274 20.3073 14.5431 19.3282 14.7101C18.4363 14.8622 18.1456 15.0974 17.2598 16.3837C16.6189 17.3144 15.9756 18.3724 15.212 19.7515C15.0441 20.0546 14.8406 20.4111 14.7597 20.5436L14.6126 20.7847L14.5371 20.6935C14.4955 20.6433 14.3663 20.4299 14.2498 20.2192L14.038 19.8362L14.4823 19.1576C14.9674 18.4165 15.2525 17.9031 15.2525 17.7706C15.2525 17.6108 15.0143 17.3226 14.3925 16.7302C13.3356 15.7234 12.6167 15.1286 12.389 15.0727C12.1449 15.0128 11.7331 15.3267 10.4655 16.539C9.63555 17.3327 9.40877 17.6012 9.40898 17.7899C9.40919 17.9465 9.63117 18.3472 10.1511 19.1294L10.6195 19.8341L10.3911 20.2795C10.2655 20.5245 10.1414 20.7378 10.1154 20.7535C10.0256 20.8078 9.8746 20.5852 9.32471 19.5882C7.71766 16.6745 6.75804 15.2993 6.10422 14.9731C5.65747 14.7502 5.32058 14.6814 4.6087 14.6677C4.25286 14.6609 3.91476 14.664 3.85737 14.6747Z" fill="#FABB18"/>
<path fill-rule="evenodd" clip-rule="evenodd" d="M28.6351 19.5196C27.9409 19.5494 27.3684 19.6465 26.6001 19.8649C23.7287 20.6809 21.3804 22.6136 20.0582 25.2487C19.5708 26.2201 19.2828 27.1169 19.1143 28.1879C19.0074 28.8669 19.0059 30.5055 19.1114 31.2087C19.3266 32.6425 19.7416 33.815 20.4319 34.9394C21.7709 37.1206 23.7942 38.7201 26.2142 39.5106C27.4727 39.9217 28.3324 40.0343 29.8874 39.9919C30.9314 39.9634 31.4363 39.8991 32.1771 39.7006C34.0347 39.2026 35.517 38.3605 36.8816 37.0277C37.8162 36.1149 38.3402 35.4279 38.8762 34.4131C39.3793 33.4605 39.812 32.1476 39.9255 31.2292C40.0533 30.1962 40.0118 28.5724 39.8363 27.7389C39.5065 26.1721 38.8293 24.7362 37.8048 23.4321C37.4254 22.9492 36.3566 21.9178 35.8546 21.5501C34.5087 20.5646 32.7907 19.8248 31.3483 19.6096C30.8171 19.5304 29.4459 19.4849 28.6351 19.5196ZM29.9624 22.6863C30.1552 22.8634 30.2004 23.0148 30.2004 23.483V23.904L30.5334 23.9552C31.1677 24.0528 31.982 24.3715 32.4688 24.7127C33.0223 25.1007 33.5467 25.7154 33.8315 26.3101C33.9973 26.6561 34.0589 26.8642 34.1032 27.2286C34.1269 27.423 34.1173 27.4722 34.0321 27.5954C33.8993 27.7874 33.6404 27.9307 33.47 27.9066C33.1731 27.8647 33.0501 27.6958 32.8481 27.0528C32.7149 26.6286 32.5173 26.3161 32.1786 25.9939C31.6524 25.4933 30.8515 25.1058 30.3429 25.1058H30.2109L30.1854 25.463C30.1714 25.6595 30.1476 26.5208 30.1325 27.377L30.1049 28.9338L30.3301 28.964C30.7277 29.0172 31.6411 29.2596 32.022 29.4129C32.958 29.7897 33.5883 30.3629 33.8778 31.1007C34.0516 31.5436 34.0291 32.7803 33.8372 33.3363C33.7265 33.6568 33.5084 33.9836 33.1673 34.3402C32.5168 35.0202 31.9104 35.3161 30.7543 35.5176C30.4841 35.5647 30.223 35.6109 30.1741 35.6202C30.0941 35.6354 30.0823 35.673 30.0573 35.9947C30.012 36.5775 29.9619 36.7639 29.8189 36.8816C29.7196 36.9633 29.6475 36.9851 29.476 36.9851C29.0607 36.9851 28.9475 36.8026 28.9161 36.0829L28.8955 35.6094L28.3066 35.4754C26.9465 35.1661 26.339 34.8894 25.811 34.3387C25.3434 33.8508 24.9912 33.1171 24.951 32.5466C24.9345 32.3125 24.9449 32.2296 25.0015 32.1452C25.1503 31.9231 25.6234 31.8466 25.836 32.0101C25.9614 32.1066 25.9979 32.1823 26.1153 32.5901C26.3303 33.337 26.7958 33.8147 27.5971 34.1111C27.8761 34.2143 28.6867 34.4122 28.8334 34.4129C28.9021 34.4132 28.9064 34.2803 28.9064 32.1885C28.9064 30.9648 28.8996 29.9637 28.8912 29.9637C28.7802 29.9637 27.5311 29.6895 27.289 29.6121C26.2664 29.2848 25.5444 28.7347 25.2039 28.0233C25.0896 27.7847 25.0872 27.7643 25.0872 27.0412V26.3027L25.2919 25.8982C25.4698 25.5467 25.5493 25.4428 25.898 25.1058C26.3313 24.6873 26.696 24.4567 27.2961 24.222C27.6985 24.0646 28.3827 23.922 28.7356 23.922H28.9899L28.9909 23.5444C28.9926 22.9189 29.0778 22.7274 29.4229 22.5738C29.6193 22.4864 29.7816 22.5202 29.9624 22.6863ZM28.3411 25.1053C27.8717 25.2091 27.3006 25.4268 27.0214 25.6084C26.3432 26.0496 26.0272 26.9231 26.3026 27.596C26.437 27.9248 27.0086 28.3131 27.6751 28.5287C27.943 28.6154 28.4128 28.7144 28.7725 28.7599L28.9932 28.7879L28.9812 26.9735C28.9683 25.0389 28.9661 25.0199 28.7657 25.0276C28.7168 25.0295 28.5258 25.0645 28.3411 25.1053ZM30.1169 32.2693C30.1169 34.1069 30.1262 34.4541 30.1749 34.4541C30.321 34.4541 30.9616 34.3181 31.2492 34.2261C31.916 34.0126 32.3555 33.6585 32.6343 33.11L32.8092 32.7661V32.1711C32.8092 31.6521 32.798 31.5524 32.7212 31.3902C32.5293 30.9845 32.032 30.6367 31.2698 30.3752C30.9514 30.2659 30.7579 30.2163 30.2108 30.1039L30.1169 30.0846V32.2693Z" fill="#FABB18"/>
</svg>
