<svg width="40" height="40" viewBox="0 0 40 40" fill="none" xmlns="http://www.w3.org/2000/svg">
<path d="M15.5503 19.1668H19.167C21.1561 19.1668 23.0638 19.957 24.4703 21.3635C25.8768 22.77 26.667 24.6777 26.667 26.6668H14.9987L15.0003 28.3335H28.3337V26.6668C28.3284 24.8934 27.816 23.1585 26.857 21.6668H31.667C33.2424 21.6664 34.7857 22.1125 36.1179 22.9535C37.4501 23.7945 38.5165 24.996 39.1937 26.4185C35.252 31.6201 28.8703 35.0001 21.667 35.0001C17.0653 35.0001 13.167 34.0168 10.0003 32.2918V16.7851C12.028 17.0756 13.9428 17.8973 15.5503 19.1668ZM8.33366 31.6668C8.33366 32.1088 8.15806 32.5327 7.8455 32.8453C7.53294 33.1579 7.10902 33.3335 6.66699 33.3335H3.33366C2.89163 33.3335 2.46771 33.1579 2.15515 32.8453C1.84259 32.5327 1.66699 32.1088 1.66699 31.6668V16.6668C1.66699 16.2248 1.84259 15.8008 2.15515 15.4883C2.46771 15.1757 2.89163 15.0001 3.33366 15.0001H6.66699C7.10902 15.0001 7.53294 15.1757 7.8455 15.4883C8.15806 15.8008 8.33366 16.2248 8.33366 16.6668V31.6668Z" fill="#49C1BF"/>
<path opacity="0.5" d="M21.8685 4.79796C20.9309 3.86028 19.6591 3.3335 18.333 3.3335C17.0069 3.3335 15.7352 3.86028 14.7975 4.79796C13.8598 5.73564 13.333 7.00741 13.333 8.3335C13.333 9.65958 13.8598 10.9313 14.7975 11.869C15.7352 12.8067 17.0069 13.3335 18.333 13.3335C19.6591 13.3335 20.9309 12.8067 21.8685 11.869C22.8062 10.9313 23.333 9.65958 23.333 8.3335C23.333 7.00741 22.8062 5.73564 21.8685 4.79796Z" fill="#49C1BF"/>
<path opacity="0.5" d="M33.5355 9.79796C32.5979 8.86028 31.3261 8.3335 30 8.3335C28.6739 8.3335 27.4021 8.86028 26.4645 9.79796C25.5268 10.7356 25 12.0074 25 13.3335C25 14.6596 25.5268 15.9313 26.4645 16.869C27.4021 17.8067 28.6739 18.3335 30 18.3335C31.3261 18.3335 32.5979 17.8067 33.5355 16.869C34.4732 15.9313 35 14.6596 35 13.3335C35 12.0074 34.4732 10.7356 33.5355 9.79796Z" fill="#49C1BF"/>
</svg>
