<svg width="792" height="503" viewBox="0 0 792 503" fill="none" xmlns="http://www.w3.org/2000/svg">
<rect width="792" height="503" rx="12" fill="#141541" fill-opacity="0.3"/>
<rect x="1" y="1" width="790" height="501" rx="11" stroke="url(#paint0_linear_2_1721)" stroke-opacity="0.4" stroke-width="2"/>
<g opacity="0.1">
<mask id="mask0_2_1721" style="mask-type:alpha" maskUnits="userSpaceOnUse" x="0" y="88" width="792" height="415">
<rect y="88" width="792" height="415" fill="url(#paint1_radial_2_1721)"/>
</mask>
<g mask="url(#mask0_2_1721)">
<path d="M0 141.582H792" stroke="url(#paint2_linear_2_1721)" stroke-opacity="0.4" stroke-width="2"/>
<path d="M0 203.582H792" stroke="url(#paint3_linear_2_1721)" stroke-opacity="0.4" stroke-width="2"/>
<path d="M0 265.582H792" stroke="url(#paint4_linear_2_1721)" stroke-opacity="0.4" stroke-width="2"/>
<path d="M0 327.582H792" stroke="url(#paint5_linear_2_1721)" stroke-opacity="0.4" stroke-width="2"/>
<path d="M0 389.582H792" stroke="url(#paint6_linear_2_1721)" stroke-opacity="0.4" stroke-width="2"/>
<path d="M0 451.582H792" stroke="url(#paint7_linear_2_1721)" stroke-opacity="0.4" stroke-width="2"/>
<path d="M427.004 503.582L427.004 87.582" stroke="url(#paint8_linear_2_1721)" stroke-opacity="0.4" stroke-width="2"/>
<path d="M489.004 503.582L489.004 87.582" stroke="url(#paint9_linear_2_1721)" stroke-opacity="0.4" stroke-width="2"/>
<path d="M551.004 503.582L551.004 87.582" stroke="url(#paint10_linear_2_1721)" stroke-opacity="0.4" stroke-width="2"/>
<path d="M613.003 503.582L613.003 87.582" stroke="url(#paint11_linear_2_1721)" stroke-opacity="0.4" stroke-width="2"/>
<path d="M675.003 503.582L675.003 87.582" stroke="url(#paint12_linear_2_1721)" stroke-opacity="0.4" stroke-width="2"/>
<path d="M737.003 503.582L737.003 87.582" stroke="url(#paint13_linear_2_1721)" stroke-opacity="0.4" stroke-width="2"/>
<path d="M55.001 503.582L55.001 87.582" stroke="url(#paint14_linear_2_1721)" stroke-opacity="0.4" stroke-width="2"/>
<path d="M116.997 503.582L116.997 87.582" stroke="url(#paint15_linear_2_1721)" stroke-opacity="0.4" stroke-width="2"/>
<path d="M178.997 503.582L178.997 87.582" stroke="url(#paint16_linear_2_1721)" stroke-opacity="0.4" stroke-width="2"/>
<path d="M240.996 503.582L240.996 87.582" stroke="url(#paint17_linear_2_1721)" stroke-opacity="0.4" stroke-width="2"/>
<path d="M302.996 503.582L302.996 87.582" stroke="url(#paint18_linear_2_1721)" stroke-opacity="0.4" stroke-width="2"/>
<path d="M364.996 503.582L364.996 87.582" stroke="url(#paint19_linear_2_1721)" stroke-opacity="0.4" stroke-width="2"/>
</g>
</g>
<path opacity="0.2" d="M0 44H792" stroke="url(#paint20_linear_2_1721)" stroke-opacity="0.4" stroke-width="2"/>
<g opacity="0.5">
<path d="M50.9111 74.1796H47.1709V84.8791H50.9111C54.3294 84.8791 56.5521 82.7791 56.5521 79.5447C56.5521 76.295 54.3294 74.1796 50.9111 74.1796ZM49.3169 83.055V75.9884H50.8345C53.0878 75.9884 54.3601 77.322 54.3601 79.5447C54.3601 81.7674 53.0878 83.055 50.8345 83.055H49.3169Z" fill="white"/>
<path d="M61.8068 78.0118C62.9104 78.0118 63.7995 78.7169 63.8302 79.8359H59.7987C59.9673 78.6709 60.7797 78.0118 61.8068 78.0118ZM65.8382 82.2119H63.5236C63.2477 82.7791 62.7418 83.2389 61.8221 83.2389C60.7491 83.2389 59.8907 82.5338 59.7834 81.2768H65.9915C66.0375 81.0009 66.0529 80.725 66.0529 80.4491C66.0529 77.9198 64.3207 76.249 61.8681 76.249C59.3542 76.249 57.6067 77.9505 57.6067 80.633C57.6067 83.3002 59.4002 85.0171 61.8681 85.0171C63.9681 85.0171 65.3784 83.7754 65.8382 82.2119Z" fill="white"/>
<path d="M67.8492 84.8791H70.0259V78.1498H71.5128V76.3869H70.0259V76.0344C70.0259 75.084 70.3784 74.7468 71.4208 74.7774V72.9686C69.0295 72.9073 67.8492 73.873 67.8492 75.9577V76.3869H66.8835V78.1498H67.8492V84.8791Z" fill="white"/>
<path d="M72.9035 84.8791H75.0495V76.3869H72.9035V84.8791ZM73.9918 75.3752C74.743 75.3752 75.3101 74.8234 75.3101 74.1183C75.3101 73.4132 74.743 72.8613 73.9918 72.8613C73.2254 72.8613 72.6736 73.4132 72.6736 74.1183C72.6736 74.8234 73.2254 75.3752 73.9918 75.3752Z" fill="white"/>
<path d="M83.378 74.1643H77.1698V84.8791H83.378V83.1316H79.3158V80.2958H82.9181V78.5943H79.3158V75.9118H83.378V74.1643Z" fill="white"/>
<path d="M84.7764 80.6024C84.7764 83.2542 86.4932 85.0171 88.6545 85.0171C89.9882 85.0171 90.9385 84.4039 91.4444 83.6221V84.8791H93.6211V73.5358H91.4444V77.5673C90.8619 76.7702 89.7889 76.249 88.6699 76.249C86.4932 76.249 84.7764 77.9505 84.7764 80.6024ZM91.4597 80.633C91.4597 82.2425 90.3867 83.1316 89.2064 83.1316C88.0567 83.1316 86.9684 82.2119 86.9684 80.6024C86.9684 78.9928 88.0567 78.1344 89.2064 78.1344C90.3867 78.1344 91.4597 79.0235 91.4597 80.633Z" fill="white"/>
<path d="M95.1652 80.6024C95.1652 83.2542 96.882 85.0171 99.0434 85.0171C100.377 85.0171 101.343 84.3579 101.849 83.6221V84.9404C101.849 86.5193 100.929 87.1937 99.7485 87.1937C98.6755 87.1937 97.8784 86.6879 97.6638 85.9215H95.5331C95.7477 87.8682 97.4185 89.0639 99.8098 89.0639C102.6 89.0639 104.01 87.2397 104.01 84.9404V76.3869H101.849V77.5979C101.343 76.8621 100.377 76.249 99.0434 76.249C96.882 76.249 95.1652 77.9505 95.1652 80.6024ZM101.849 80.633C101.849 82.2425 100.776 83.1316 99.5952 83.1316C98.4456 83.1316 97.3572 82.2119 97.3572 80.6024C97.3572 78.9928 98.4456 78.1344 99.5952 78.1344C100.776 78.1344 101.849 79.0235 101.849 80.633Z" fill="white"/>
<path d="M109.754 78.0118C110.858 78.0118 111.747 78.7169 111.778 79.8359H107.746C107.915 78.6709 108.727 78.0118 109.754 78.0118ZM113.786 82.2119H111.471C111.195 82.7791 110.689 83.2389 109.769 83.2389C108.696 83.2389 107.838 82.5338 107.731 81.2768H113.939C113.985 81.0009 114 80.725 114 80.4491C114 77.9198 112.268 76.249 109.815 76.249C107.302 76.249 105.554 77.9505 105.554 80.633C105.554 83.3002 107.348 85.0171 109.815 85.0171C111.916 85.0171 113.326 83.7754 113.786 82.2119Z" fill="white"/>
<g clip-path="url(#clip0_2_1721)">
<path d="M41.7355 81.9496C41.9047 81.1151 41.9953 80.2564 41.9953 79.3735C41.9953 78.4301 41.8926 77.517 41.6993 76.6341C39.6934 76.391 38.3088 76.391 36.6615 76.5171C32.5395 76.8326 30.6933 78.2372 29.5557 79.3009C30.6933 80.3141 31.8472 81.488 36.6615 82.0847C38.5395 82.3175 39.9242 82.1603 41.7355 81.9496Z" fill="white"/>
<path d="M41.6926 76.6408C40.1463 75.9695 38.4428 75.6007 36.6549 75.6007C33.1634 75.6007 29.9982 77.0157 27.7089 79.3015C25.4195 77.0097 24 73.8349 24 70.3336C24 69.4507 24.0906 68.592 24.2597 67.7575C25.8122 67.0741 27.5277 66.6992 29.3338 66.6992C35.3924 66.6992 40.4543 70.9504 41.7047 76.6408H41.6926Z" fill="white"/>
<path d="M41.6926 81.9615C40.1463 82.6328 38.4428 83.0017 36.6549 83.0017C33.1634 83.0017 29.9982 81.5866 27.7089 79.3008C25.4195 81.5927 24 84.7674 24 88.2687C24 89.1516 24.0906 90.0103 24.2597 90.8448C25.8122 91.5221 27.5277 91.9031 29.3338 91.9031C35.3924 91.9031 40.4543 87.6519 41.7047 81.9615H41.6926Z" fill="white"/>
</g>
</g>
<circle opacity="0.4" cx="24" cy="22" r="6" fill="#72738D"/>
<circle opacity="0.4" cx="44" cy="22" r="6" fill="#72738D"/>
<circle opacity="0.4" cx="64" cy="22" r="6" fill="#72738D"/>
<rect opacity="0.1" x="585" y="69" width="54" height="16" rx="8" fill="white"/>
<rect opacity="0.1" x="515" y="69" width="54" height="16" rx="8" fill="white"/>
<rect opacity="0.1" x="655" y="69" width="76" height="16" rx="8" fill="white"/>
<rect opacity="0.1" x="747" y="69" width="17" height="16" rx="8" fill="white"/>
<path opacity="0.6" d="M79.646 147.712H82.936V149H78.05V139.27H79.646V147.712ZM85.0827 140.264C84.7934 140.264 84.5507 140.166 84.3547 139.97C84.1587 139.774 84.0607 139.531 84.0607 139.242C84.0607 138.953 84.1587 138.71 84.3547 138.514C84.5507 138.318 84.7934 138.22 85.0827 138.22C85.3627 138.22 85.6007 138.318 85.7967 138.514C85.9927 138.71 86.0907 138.953 86.0907 139.242C86.0907 139.531 85.9927 139.774 85.7967 139.97C85.6007 140.166 85.3627 140.264 85.0827 140.264ZM85.8667 141.286V149H84.2707V141.286H85.8667ZM87.4301 145.108C87.4301 144.333 87.5888 143.647 87.9061 143.05C88.2328 142.453 88.6714 141.991 89.2221 141.664C89.7821 141.328 90.4028 141.16 91.0841 141.16C91.6814 141.16 92.2088 141.281 92.6661 141.524C93.1328 141.767 93.4921 142.061 93.7441 142.406V141.286H95.3541V152.668H93.7441V147.88C93.4921 148.225 93.1281 148.519 92.6521 148.762C92.1761 149.005 91.6348 149.126 91.0281 149.126C90.3654 149.126 89.7588 148.958 89.2081 148.622C88.6668 148.277 88.2328 147.801 87.9061 147.194C87.5888 146.578 87.4301 145.883 87.4301 145.108ZM93.7441 145.136C93.7441 144.604 93.6321 144.142 93.4081 143.75C93.1934 143.358 92.9088 143.059 92.5541 142.854C92.1994 142.649 91.8168 142.546 91.4061 142.546C90.9954 142.546 90.6128 142.649 90.2581 142.854C89.9034 143.05 89.6141 143.344 89.3901 143.736C89.1754 144.119 89.0681 144.576 89.0681 145.108C89.0681 145.64 89.1754 146.107 89.3901 146.508C89.6141 146.909 89.9034 147.217 90.2581 147.432C90.6221 147.637 91.0048 147.74 91.4061 147.74C91.8168 147.74 92.1994 147.637 92.5541 147.432C92.9088 147.227 93.1934 146.928 93.4081 146.536C93.6321 146.135 93.7441 145.668 93.7441 145.136ZM104.436 141.286V149H102.84V148.09C102.588 148.407 102.257 148.659 101.846 148.846C101.445 149.023 101.016 149.112 100.558 149.112C99.9517 149.112 99.4057 148.986 98.9204 148.734C98.4444 148.482 98.0664 148.109 97.7864 147.614C97.5157 147.119 97.3804 146.522 97.3804 145.822V141.286H98.9624V145.584C98.9624 146.275 99.1351 146.807 99.4804 147.18C99.8257 147.544 100.297 147.726 100.894 147.726C101.492 147.726 101.963 147.544 102.308 147.18C102.663 146.807 102.84 146.275 102.84 145.584V141.286H104.436ZM107.354 140.264C107.065 140.264 106.822 140.166 106.626 139.97C106.43 139.774 106.332 139.531 106.332 139.242C106.332 138.953 106.43 138.71 106.626 138.514C106.822 138.318 107.065 138.22 107.354 138.22C107.634 138.22 107.872 138.318 108.068 138.514C108.264 138.71 108.362 138.953 108.362 139.242C108.362 139.531 108.264 139.774 108.068 139.97C107.872 140.166 107.634 140.264 107.354 140.264ZM108.138 141.286V149H106.542V141.286H108.138ZM109.702 145.108C109.702 144.333 109.86 143.647 110.178 143.05C110.504 142.453 110.943 141.991 111.494 141.664C112.054 141.328 112.674 141.16 113.356 141.16C113.86 141.16 114.354 141.272 114.84 141.496C115.334 141.711 115.726 142 116.016 142.364V138.64H117.626V149H116.016V147.838C115.754 148.211 115.39 148.519 114.924 148.762C114.466 149.005 113.939 149.126 113.342 149.126C112.67 149.126 112.054 148.958 111.494 148.622C110.943 148.277 110.504 147.801 110.178 147.194C109.86 146.578 109.702 145.883 109.702 145.108ZM116.016 145.136C116.016 144.604 115.904 144.142 115.68 143.75C115.465 143.358 115.18 143.059 114.826 142.854C114.471 142.649 114.088 142.546 113.678 142.546C113.267 142.546 112.884 142.649 112.53 142.854C112.175 143.05 111.886 143.344 111.662 143.736C111.447 144.119 111.34 144.576 111.34 145.108C111.34 145.64 111.447 146.107 111.662 146.508C111.886 146.909 112.175 147.217 112.53 147.432C112.894 147.637 113.276 147.74 113.678 147.74C114.088 147.74 114.471 147.637 114.826 147.432C115.18 147.227 115.465 146.928 115.68 146.536C115.904 146.135 116.016 145.668 116.016 145.136ZM120.534 140.264C120.245 140.264 120.002 140.166 119.806 139.97C119.61 139.774 119.512 139.531 119.512 139.242C119.512 138.953 119.61 138.71 119.806 138.514C120.002 138.318 120.245 138.22 120.534 138.22C120.814 138.22 121.052 138.318 121.248 138.514C121.444 138.71 121.542 138.953 121.542 139.242C121.542 139.531 121.444 139.774 121.248 139.97C121.052 140.166 120.814 140.264 120.534 140.264ZM121.318 141.286V149H119.722V141.286H121.318ZM125.275 142.588V146.858C125.275 147.147 125.341 147.357 125.471 147.488C125.611 147.609 125.845 147.67 126.171 147.67H127.151V149H125.891C125.173 149 124.622 148.832 124.239 148.496C123.857 148.16 123.665 147.614 123.665 146.858V142.588H122.755V141.286H123.665V139.368H125.275V141.286H127.151V142.588H125.275ZM135.566 141.286L130.834 152.626H129.182L130.75 148.874L127.712 141.286H129.49L131.66 147.166L133.914 141.286H135.566ZM142.003 142.42C142.274 142.065 142.643 141.767 143.109 141.524C143.576 141.281 144.103 141.16 144.691 141.16C145.363 141.16 145.975 141.328 146.525 141.664C147.085 141.991 147.524 142.453 147.841 143.05C148.159 143.647 148.317 144.333 148.317 145.108C148.317 145.883 148.159 146.578 147.841 147.194C147.524 147.801 147.085 148.277 146.525 148.622C145.975 148.958 145.363 149.126 144.691 149.126C144.103 149.126 143.581 149.009 143.123 148.776C142.666 148.533 142.293 148.235 142.003 147.88V152.668H140.407V141.286H142.003V142.42ZM146.693 145.108C146.693 144.576 146.581 144.119 146.357 143.736C146.143 143.344 145.853 143.05 145.489 142.854C145.135 142.649 144.752 142.546 144.341 142.546C143.94 142.546 143.557 142.649 143.193 142.854C142.839 143.059 142.549 143.358 142.325 143.75C142.111 144.142 142.003 144.604 142.003 145.136C142.003 145.668 142.111 146.135 142.325 146.536C142.549 146.928 142.839 147.227 143.193 147.432C143.557 147.637 143.94 147.74 144.341 147.74C144.752 147.74 145.135 147.637 145.489 147.432C145.853 147.217 146.143 146.909 146.357 146.508C146.581 146.107 146.693 145.64 146.693 145.108ZM153.242 149.126C152.514 149.126 151.856 148.963 151.268 148.636C150.68 148.3 150.218 147.833 149.882 147.236C149.546 146.629 149.378 145.929 149.378 145.136C149.378 144.352 149.55 143.657 149.896 143.05C150.241 142.443 150.712 141.977 151.31 141.65C151.907 141.323 152.574 141.16 153.312 141.16C154.049 141.16 154.716 141.323 155.314 141.65C155.911 141.977 156.382 142.443 156.728 143.05C157.073 143.657 157.246 144.352 157.246 145.136C157.246 145.92 157.068 146.615 156.714 147.222C156.359 147.829 155.874 148.3 155.258 148.636C154.651 148.963 153.979 149.126 153.242 149.126ZM153.242 147.74C153.652 147.74 154.035 147.642 154.39 147.446C154.754 147.25 155.048 146.956 155.272 146.564C155.496 146.172 155.608 145.696 155.608 145.136C155.608 144.576 155.5 144.105 155.286 143.722C155.071 143.33 154.786 143.036 154.432 142.84C154.077 142.644 153.694 142.546 153.284 142.546C152.873 142.546 152.49 142.644 152.136 142.84C151.79 143.036 151.515 143.33 151.31 143.722C151.104 144.105 151.002 144.576 151.002 145.136C151.002 145.967 151.212 146.611 151.632 147.068C152.061 147.516 152.598 147.74 153.242 147.74ZM161.623 149.126C161.017 149.126 160.471 149.019 159.985 148.804C159.509 148.58 159.131 148.281 158.851 147.908C158.571 147.525 158.422 147.101 158.403 146.634H160.055C160.083 146.961 160.237 147.236 160.517 147.46C160.807 147.675 161.166 147.782 161.595 147.782C162.043 147.782 162.389 147.698 162.631 147.53C162.883 147.353 163.009 147.129 163.009 146.858C163.009 146.569 162.869 146.354 162.589 146.214C162.319 146.074 161.885 145.92 161.287 145.752C160.709 145.593 160.237 145.439 159.873 145.29C159.509 145.141 159.192 144.912 158.921 144.604C158.66 144.296 158.529 143.89 158.529 143.386C158.529 142.975 158.651 142.602 158.893 142.266C159.136 141.921 159.481 141.65 159.929 141.454C160.387 141.258 160.909 141.16 161.497 141.16C162.375 141.16 163.079 141.384 163.611 141.832C164.153 142.271 164.442 142.873 164.479 143.638H162.883C162.855 143.293 162.715 143.017 162.463 142.812C162.211 142.607 161.871 142.504 161.441 142.504C161.021 142.504 160.699 142.583 160.475 142.742C160.251 142.901 160.139 143.111 160.139 143.372C160.139 143.577 160.214 143.75 160.363 143.89C160.513 144.03 160.695 144.142 160.909 144.226C161.124 144.301 161.441 144.399 161.861 144.52C162.421 144.669 162.879 144.823 163.233 144.982C163.597 145.131 163.91 145.355 164.171 145.654C164.433 145.953 164.568 146.349 164.577 146.844C164.577 147.283 164.456 147.675 164.213 148.02C163.971 148.365 163.625 148.636 163.177 148.832C162.739 149.028 162.221 149.126 161.623 149.126ZM167.114 140.264C166.825 140.264 166.582 140.166 166.386 139.97C166.19 139.774 166.092 139.531 166.092 139.242C166.092 138.953 166.19 138.71 166.386 138.514C166.582 138.318 166.825 138.22 167.114 138.22C167.394 138.22 167.632 138.318 167.828 138.514C168.024 138.71 168.122 138.953 168.122 139.242C168.122 139.531 168.024 139.774 167.828 139.97C167.632 140.166 167.394 140.264 167.114 140.264ZM167.898 141.286V149H166.302V141.286H167.898ZM171.855 142.588V146.858C171.855 147.147 171.921 147.357 172.051 147.488C172.191 147.609 172.425 147.67 172.751 147.67H173.731V149H172.471C171.753 149 171.202 148.832 170.819 148.496C170.437 148.16 170.245 147.614 170.245 146.858V142.588H169.335V141.286H170.245V139.368H171.855V141.286H173.731V142.588H171.855ZM176.014 140.264C175.725 140.264 175.482 140.166 175.286 139.97C175.09 139.774 174.992 139.531 174.992 139.242C174.992 138.953 175.09 138.71 175.286 138.514C175.482 138.318 175.725 138.22 176.014 138.22C176.294 138.22 176.532 138.318 176.728 138.514C176.924 138.71 177.022 138.953 177.022 139.242C177.022 139.531 176.924 139.774 176.728 139.97C176.532 140.166 176.294 140.264 176.014 140.264ZM176.798 141.286V149H175.202V141.286H176.798ZM182.24 149.126C181.512 149.126 180.854 148.963 180.266 148.636C179.678 148.3 179.216 147.833 178.88 147.236C178.544 146.629 178.376 145.929 178.376 145.136C178.376 144.352 178.548 143.657 178.894 143.05C179.239 142.443 179.71 141.977 180.308 141.65C180.905 141.323 181.572 141.16 182.31 141.16C183.047 141.16 183.714 141.323 184.312 141.65C184.909 141.977 185.38 142.443 185.726 143.05C186.071 143.657 186.244 144.352 186.244 145.136C186.244 145.92 186.066 146.615 185.712 147.222C185.357 147.829 184.872 148.3 184.256 148.636C183.649 148.963 182.977 149.126 182.24 149.126ZM182.24 147.74C182.65 147.74 183.033 147.642 183.388 147.446C183.752 147.25 184.046 146.956 184.27 146.564C184.494 146.172 184.606 145.696 184.606 145.136C184.606 144.576 184.498 144.105 184.284 143.722C184.069 143.33 183.784 143.036 183.43 142.84C183.075 142.644 182.692 142.546 182.282 142.546C181.871 142.546 181.488 142.644 181.134 142.84C180.788 143.036 180.513 143.33 180.308 143.722C180.102 144.105 180 144.576 180 145.136C180 145.967 180.21 146.611 180.63 147.068C181.059 147.516 181.596 147.74 182.24 147.74ZM191.713 141.16C192.32 141.16 192.861 141.286 193.337 141.538C193.823 141.79 194.201 142.163 194.471 142.658C194.742 143.153 194.877 143.75 194.877 144.45V149H193.295V144.688C193.295 143.997 193.123 143.47 192.777 143.106C192.432 142.733 191.961 142.546 191.363 142.546C190.766 142.546 190.29 142.733 189.935 143.106C189.59 143.47 189.417 143.997 189.417 144.688V149H187.821V141.286H189.417V142.168C189.679 141.851 190.01 141.603 190.411 141.426C190.822 141.249 191.256 141.16 191.713 141.16Z" fill="white"/>
<path d="M78.08 176C78.08 173.248 78.608 171.08 79.664 169.496C80.736 167.912 82.456 167.12 84.824 167.12C87.192 167.12 88.904 167.912 89.96 169.496C91.032 171.08 91.568 173.248 91.568 176C91.568 178.784 91.032 180.968 89.96 182.552C88.904 184.136 87.192 184.928 84.824 184.928C82.456 184.928 80.736 184.136 79.664 182.552C78.608 180.968 78.08 178.784 78.08 176ZM87.536 176C87.536 174.384 87.36 173.144 87.008 172.28C86.656 171.4 85.928 170.96 84.824 170.96C83.72 170.96 82.992 171.4 82.64 172.28C82.288 173.144 82.112 174.384 82.112 176C82.112 177.088 82.176 177.992 82.304 178.712C82.432 179.416 82.688 179.992 83.072 180.44C83.472 180.872 84.056 181.088 84.824 181.088C85.592 181.088 86.168 180.872 86.552 180.44C86.952 179.992 87.216 179.416 87.344 178.712C87.472 177.992 87.536 177.088 87.536 176ZM93.4003 171.896C93.4003 170.6 93.7683 169.6 94.5043 168.896C95.2563 168.192 96.2243 167.84 97.4083 167.84C98.5923 167.84 99.5523 168.192 100.288 168.896C101.024 169.6 101.392 170.6 101.392 171.896C101.392 173.192 101.024 174.192 100.288 174.896C99.5523 175.6 98.5923 175.952 97.4083 175.952C96.2243 175.952 95.2563 175.6 94.5043 174.896C93.7683 174.192 93.4003 173.192 93.4003 171.896ZM109.696 168.104L100.456 185H96.4963L105.736 168.104H109.696ZM97.3843 170.24C96.6163 170.24 96.2323 170.792 96.2323 171.896C96.2323 172.984 96.6163 173.528 97.3843 173.528C97.7523 173.528 98.0403 173.392 98.2483 173.12C98.4563 172.848 98.5603 172.44 98.5603 171.896C98.5603 170.792 98.1683 170.24 97.3843 170.24ZM104.824 181.208C104.824 179.912 105.192 178.912 105.928 178.208C106.664 177.504 107.624 177.152 108.808 177.152C109.992 177.152 110.952 177.504 111.688 178.208C112.424 178.912 112.792 179.912 112.792 181.208C112.792 182.504 112.424 183.504 111.688 184.208C110.952 184.912 109.992 185.264 108.808 185.264C107.624 185.264 106.664 184.912 105.928 184.208C105.192 183.504 104.824 182.504 104.824 181.208ZM108.784 179.552C108.416 179.552 108.128 179.688 107.92 179.96C107.728 180.232 107.632 180.648 107.632 181.208C107.632 182.296 108.016 182.84 108.784 182.84C109.152 182.84 109.44 182.704 109.648 182.432C109.856 182.16 109.96 181.752 109.96 181.208C109.96 180.664 109.856 180.256 109.648 179.984C109.44 179.696 109.152 179.552 108.784 179.552ZM126.425 168.152C128.201 168.152 129.753 168.504 131.081 169.208C132.409 169.912 133.433 170.904 134.153 172.184C134.889 173.448 135.257 174.912 135.257 176.576C135.257 178.224 134.889 179.688 134.153 180.968C133.433 182.248 132.401 183.24 131.057 183.944C129.729 184.648 128.185 185 126.425 185H120.113V168.152H126.425ZM126.161 181.448C127.713 181.448 128.921 181.024 129.785 180.176C130.649 179.328 131.081 178.128 131.081 176.576C131.081 175.024 130.649 173.816 129.785 172.952C128.921 172.088 127.713 171.656 126.161 171.656H124.217V181.448H126.161ZM148.039 182.024H141.751L140.743 185H136.447L142.543 168.152H147.295L153.391 185H149.047L148.039 182.024ZM146.983 178.856L144.895 172.688L142.831 178.856H146.983ZM159.35 168.152V185H155.246V168.152H159.35Z" fill="#DA9629"/>
<path d="M177.008 180.608C176.352 180.608 175.744 180.448 175.184 180.128C174.64 179.808 174.208 179.376 173.888 178.832C173.568 178.272 173.408 177.664 173.408 177.008C173.408 176.336 173.568 175.728 173.888 175.184C174.208 174.624 174.64 174.184 175.184 173.864C175.744 173.544 176.352 173.384 177.008 173.384C177.68 173.384 178.288 173.544 178.832 173.864C179.392 174.184 179.832 174.624 180.152 175.184C180.472 175.728 180.632 176.336 180.632 177.008C180.632 177.664 180.472 178.272 180.152 178.832C179.832 179.376 179.392 179.808 178.832 180.128C178.288 180.448 177.68 180.608 177.008 180.608Z" fill="white"/>
<path d="M193.851 171.296V167.48H200.499V185H196.227V171.296H193.851ZM203.307 176C203.307 173.248 203.835 171.08 204.891 169.496C205.963 167.912 207.683 167.12 210.051 167.12C212.419 167.12 214.131 167.912 215.187 169.496C216.259 171.08 216.795 173.248 216.795 176C216.795 178.784 216.259 180.968 215.187 182.552C214.131 184.136 212.419 184.928 210.051 184.928C207.683 184.928 205.963 184.136 204.891 182.552C203.835 180.968 203.307 178.784 203.307 176ZM212.763 176C212.763 174.384 212.587 173.144 212.235 172.28C211.883 171.4 211.155 170.96 210.051 170.96C208.947 170.96 208.219 171.4 207.867 172.28C207.515 173.144 207.339 174.384 207.339 176C207.339 177.088 207.403 177.992 207.531 178.712C207.659 179.416 207.915 179.992 208.299 180.44C208.699 180.872 209.283 181.088 210.051 181.088C210.819 181.088 211.395 180.872 211.779 180.44C212.179 179.992 212.443 179.416 212.571 178.712C212.699 177.992 212.763 177.088 212.763 176ZM218.963 176C218.963 173.248 219.491 171.08 220.547 169.496C221.619 167.912 223.339 167.12 225.707 167.12C228.075 167.12 229.787 167.912 230.843 169.496C231.915 171.08 232.451 173.248 232.451 176C232.451 178.784 231.915 180.968 230.843 182.552C229.787 184.136 228.075 184.928 225.707 184.928C223.339 184.928 221.619 184.136 220.547 182.552C219.491 180.968 218.963 178.784 218.963 176ZM228.419 176C228.419 174.384 228.243 173.144 227.891 172.28C227.539 171.4 226.811 170.96 225.707 170.96C224.603 170.96 223.875 171.4 223.523 172.28C223.171 173.144 222.995 174.384 222.995 176C222.995 177.088 223.059 177.992 223.187 178.712C223.315 179.416 223.571 179.992 223.955 180.44C224.355 180.872 224.939 181.088 225.707 181.088C226.475 181.088 227.051 180.872 227.435 180.44C227.835 179.992 228.099 179.416 228.227 178.712C228.355 177.992 228.419 177.088 228.419 176ZM234.283 171.896C234.283 170.6 234.651 169.6 235.387 168.896C236.139 168.192 237.107 167.84 238.291 167.84C239.475 167.84 240.435 168.192 241.171 168.896C241.907 169.6 242.275 170.6 242.275 171.896C242.275 173.192 241.907 174.192 241.171 174.896C240.435 175.6 239.475 175.952 238.291 175.952C237.107 175.952 236.139 175.6 235.387 174.896C234.651 174.192 234.283 173.192 234.283 171.896ZM250.579 168.104L241.339 185H237.379L246.619 168.104H250.579ZM238.267 170.24C237.499 170.24 237.115 170.792 237.115 171.896C237.115 172.984 237.499 173.528 238.267 173.528C238.635 173.528 238.923 173.392 239.131 173.12C239.339 172.848 239.443 172.44 239.443 171.896C239.443 170.792 239.051 170.24 238.267 170.24ZM245.707 181.208C245.707 179.912 246.075 178.912 246.811 178.208C247.547 177.504 248.507 177.152 249.691 177.152C250.875 177.152 251.835 177.504 252.571 178.208C253.307 178.912 253.675 179.912 253.675 181.208C253.675 182.504 253.307 183.504 252.571 184.208C251.835 184.912 250.875 185.264 249.691 185.264C248.507 185.264 247.547 184.912 246.811 184.208C246.075 183.504 245.707 182.504 245.707 181.208ZM249.667 179.552C249.299 179.552 249.011 179.688 248.803 179.96C248.611 180.232 248.515 180.648 248.515 181.208C248.515 182.296 248.899 182.84 249.667 182.84C250.035 182.84 250.323 182.704 250.531 182.432C250.739 182.16 250.843 181.752 250.843 181.208C250.843 180.664 250.739 180.256 250.531 179.984C250.323 179.696 250.035 179.552 249.667 179.552ZM265.028 168.152V178.232C265.028 179.24 265.276 180.016 265.772 180.56C266.268 181.104 266.996 181.376 267.956 181.376C268.916 181.376 269.652 181.104 270.164 180.56C270.676 180.016 270.932 179.24 270.932 178.232V168.152H275.036V178.208C275.036 179.712 274.716 180.984 274.076 182.024C273.436 183.064 272.572 183.848 271.484 184.376C270.412 184.904 269.212 185.168 267.884 185.168C266.556 185.168 265.364 184.912 264.308 184.4C263.268 183.872 262.444 183.088 261.836 182.048C261.228 180.992 260.924 179.712 260.924 178.208V168.152H265.028ZM284.014 185.168C282.782 185.168 281.678 184.968 280.702 184.568C279.726 184.168 278.942 183.576 278.35 182.792C277.774 182.008 277.47 181.064 277.438 179.96H281.806C281.87 180.584 282.086 181.064 282.454 181.4C282.822 181.72 283.302 181.88 283.894 181.88C284.502 181.88 284.982 181.744 285.334 181.472C285.686 181.184 285.862 180.792 285.862 180.296C285.862 179.88 285.718 179.536 285.43 179.264C285.158 178.992 284.814 178.768 284.398 178.592C283.998 178.416 283.422 178.216 282.67 177.992C281.582 177.656 280.694 177.32 280.006 176.984C279.318 176.648 278.726 176.152 278.23 175.496C277.734 174.84 277.486 173.984 277.486 172.928C277.486 171.36 278.054 170.136 279.19 169.256C280.326 168.36 281.806 167.912 283.63 167.912C285.486 167.912 286.982 168.36 288.118 169.256C289.254 170.136 289.862 171.368 289.942 172.952H285.502C285.47 172.408 285.27 171.984 284.902 171.68C284.534 171.36 284.062 171.2 283.486 171.2C282.99 171.2 282.59 171.336 282.286 171.608C281.982 171.864 281.83 172.24 281.83 172.736C281.83 173.28 282.086 173.704 282.598 174.008C283.11 174.312 283.91 174.64 284.998 174.992C286.086 175.36 286.966 175.712 287.638 176.048C288.326 176.384 288.918 176.872 289.414 177.512C289.91 178.152 290.158 178.976 290.158 179.984C290.158 180.944 289.91 181.816 289.414 182.6C288.934 183.384 288.23 184.008 287.302 184.472C286.374 184.936 285.278 185.168 284.014 185.168ZM298.995 168.152C300.771 168.152 302.323 168.504 303.651 169.208C304.979 169.912 306.003 170.904 306.723 172.184C307.459 173.448 307.827 174.912 307.827 176.576C307.827 178.224 307.459 179.688 306.723 180.968C306.003 182.248 304.971 183.24 303.627 183.944C302.299 184.648 300.755 185 298.995 185H292.683V168.152H298.995ZM298.731 181.448C300.283 181.448 301.491 181.024 302.355 180.176C303.219 179.328 303.651 178.128 303.651 176.576C303.651 175.024 303.219 173.816 302.355 172.952C301.491 172.088 300.283 171.656 298.731 171.656H296.787V181.448H298.731ZM322.241 168.152V171.44H317.777V185H313.673V171.44H309.209V168.152H322.241Z" fill="#1BA27A"/>
<rect opacity="0.8" x="77" y="234" width="637" height="32" rx="16" fill="url(#paint21_linear_2_1721)" fill-opacity="0.3"/>
<rect opacity="0.8" x="77" y="295" width="637" height="64" rx="32" fill="url(#paint22_linear_2_1721)"/>
<rect opacity="0.8" x="77" y="388" width="637" height="32" rx="16" fill="url(#paint23_linear_2_1721)" fill-opacity="0.3"/>
<g filter="url(#filter0_d_2_1721)">
<path d="M338 390.351C338 375.633 349.931 363.702 364.649 363.702H382.563C386.081 363.702 389.45 362.275 391.898 359.749L396.5 355L401.102 359.749C403.55 362.275 406.919 363.702 410.437 363.702H428.351C443.069 363.702 455 375.633 455 390.351V390.351C455 405.069 443.069 417 428.351 417H364.649C349.931 417 338 405.069 338 390.351V390.351Z" fill="white"/>
</g>
<path opacity="0.6" d="M368.091 374.727H369.142L371.613 380.764H371.699L374.17 374.727H375.221V382H374.397V376.474H374.326L372.054 382H371.258L368.986 376.474H368.915V382H368.091V374.727ZM378.479 382.128C378.133 382.128 377.819 382.063 377.538 381.933C377.256 381.8 377.032 381.609 376.866 381.361C376.701 381.11 376.618 380.807 376.618 380.452C376.618 380.139 376.679 379.886 376.802 379.692C376.926 379.495 377.09 379.341 377.296 379.23C377.502 379.119 377.729 379.036 377.978 378.982C378.229 378.925 378.481 378.88 378.734 378.847C379.066 378.804 379.334 378.772 379.54 378.751C379.749 378.727 379.9 378.688 379.995 378.634C380.092 378.579 380.141 378.484 380.141 378.349V378.321C380.141 377.971 380.045 377.698 379.853 377.504C379.664 377.31 379.376 377.213 378.99 377.213C378.59 377.213 378.276 377.301 378.049 377.476C377.822 377.651 377.662 377.838 377.57 378.037L376.774 377.753C376.916 377.421 377.105 377.163 377.342 376.979C377.581 376.792 377.842 376.661 378.123 376.588C378.408 376.512 378.687 376.474 378.962 376.474C379.137 376.474 379.338 376.496 379.565 376.538C379.795 376.579 380.016 376.663 380.229 376.79C380.445 376.918 380.623 377.111 380.766 377.369C380.908 377.627 380.979 377.973 380.979 378.406V382H380.141V381.261H380.098C380.041 381.38 379.946 381.506 379.814 381.641C379.681 381.776 379.505 381.891 379.285 381.986C379.065 382.08 378.796 382.128 378.479 382.128ZM378.606 381.375C378.938 381.375 379.217 381.31 379.445 381.18C379.674 381.049 379.847 380.881 379.963 380.675C380.081 380.469 380.141 380.253 380.141 380.026V379.259C380.105 379.301 380.027 379.34 379.906 379.376C379.788 379.409 379.65 379.438 379.494 379.464C379.34 379.488 379.19 379.509 379.043 379.528C378.899 379.545 378.782 379.559 378.692 379.571C378.474 379.599 378.27 379.646 378.081 379.71C377.894 379.771 377.742 379.865 377.626 379.99C377.513 380.113 377.456 380.281 377.456 380.494C377.456 380.786 377.564 381.006 377.779 381.155C377.997 381.302 378.273 381.375 378.606 381.375ZM382.508 382V376.545H383.318V377.369H383.375C383.474 377.099 383.654 376.88 383.915 376.712C384.175 376.544 384.468 376.46 384.795 376.46C384.857 376.46 384.934 376.461 385.026 376.464C385.118 376.466 385.188 376.47 385.236 376.474V377.327C385.207 377.32 385.142 377.309 385.04 377.295C384.941 377.278 384.835 377.27 384.724 377.27C384.459 377.27 384.222 377.326 384.014 377.437C383.808 377.546 383.645 377.697 383.524 377.891C383.406 378.083 383.346 378.302 383.346 378.548V382H382.508ZM387.01 380.011L386.996 378.974H387.166L389.553 376.545H390.59L388.047 379.116H387.976L387.01 380.011ZM386.229 382V374.727H387.067V382H386.229ZM389.695 382L387.564 379.301L388.161 378.719L390.76 382H389.695ZM393.731 382.114C393.205 382.114 392.752 381.998 392.371 381.766C391.992 381.531 391.699 381.205 391.494 380.786C391.29 380.364 391.188 379.874 391.188 379.315C391.188 378.757 391.29 378.264 391.494 377.838C391.699 377.41 391.986 377.076 392.353 376.837C392.722 376.595 393.153 376.474 393.646 376.474C393.93 376.474 394.21 376.522 394.487 376.616C394.764 376.711 395.016 376.865 395.244 377.078C395.471 377.289 395.652 377.568 395.787 377.916C395.922 378.264 395.989 378.693 395.989 379.202V379.557H391.785V378.832H395.137C395.137 378.525 395.075 378.25 394.952 378.009C394.832 377.767 394.659 377.576 394.434 377.437C394.211 377.297 393.949 377.227 393.646 377.227C393.312 377.227 393.023 377.31 392.779 377.476C392.538 377.639 392.352 377.852 392.222 378.115C392.091 378.378 392.026 378.66 392.026 378.96V379.443C392.026 379.855 392.097 380.204 392.239 380.491C392.384 380.775 392.584 380.991 392.839 381.141C393.095 381.287 393.392 381.361 393.731 381.361C393.951 381.361 394.15 381.33 394.327 381.268C394.507 381.205 394.662 381.11 394.793 380.984C394.923 380.857 395.023 380.698 395.094 380.509L395.904 380.736C395.819 381.01 395.676 381.252 395.474 381.46C395.273 381.666 395.025 381.827 394.729 381.943C394.433 382.057 394.1 382.114 393.731 382.114ZM399.636 376.545V377.256H396.81V376.545H399.636ZM397.633 375.239H398.472V380.438C398.472 380.674 398.506 380.852 398.574 380.97C398.646 381.086 398.735 381.164 398.844 381.205C398.956 381.242 399.073 381.261 399.196 381.261C399.288 381.261 399.364 381.257 399.423 381.247C399.482 381.235 399.53 381.226 399.565 381.219L399.736 381.972C399.679 381.993 399.6 382.014 399.498 382.036C399.396 382.059 399.267 382.071 399.111 382.071C398.874 382.071 398.642 382.02 398.415 381.918C398.19 381.817 398.003 381.661 397.854 381.453C397.707 381.245 397.633 380.982 397.633 380.665V375.239ZM403.823 382V374.727H406.28C406.851 374.727 407.317 374.83 407.68 375.036C408.044 375.24 408.314 375.516 408.489 375.864C408.664 376.212 408.752 376.6 408.752 377.028C408.752 377.457 408.664 377.846 408.489 378.197C408.316 378.547 408.049 378.826 407.687 379.035C407.324 379.241 406.86 379.344 406.295 379.344H404.533V378.562H406.266C406.657 378.562 406.971 378.495 407.207 378.36C407.444 378.225 407.616 378.043 407.722 377.813C407.831 377.581 407.886 377.32 407.886 377.028C407.886 376.737 407.831 376.477 407.722 376.247C407.616 376.018 407.443 375.838 407.204 375.707C406.965 375.575 406.647 375.509 406.252 375.509H404.704V382H403.823ZM410.057 382V376.545H410.867V377.369H410.924C411.023 377.099 411.203 376.88 411.463 376.712C411.724 376.544 412.017 376.46 412.344 376.46C412.406 376.46 412.483 376.461 412.575 376.464C412.667 376.466 412.737 376.47 412.784 376.474V377.327C412.756 377.32 412.691 377.309 412.589 377.295C412.49 377.278 412.384 377.27 412.273 377.27C412.008 377.27 411.771 377.326 411.563 377.437C411.357 377.546 411.193 377.697 411.073 377.891C410.954 378.083 410.895 378.302 410.895 378.548V382H410.057ZM413.778 382V376.545H414.616V382H413.778ZM414.204 375.636C414.041 375.636 413.9 375.581 413.781 375.469C413.665 375.358 413.607 375.224 413.607 375.068C413.607 374.912 413.665 374.778 413.781 374.667C413.9 374.556 414.041 374.5 414.204 374.5C414.367 374.5 414.507 374.556 414.623 374.667C414.741 374.778 414.801 374.912 414.801 375.068C414.801 375.224 414.741 375.358 414.623 375.469C414.507 375.581 414.367 375.636 414.204 375.636ZM418.367 382.114C417.855 382.114 417.415 381.993 417.046 381.751C416.676 381.51 416.392 381.177 416.193 380.754C415.995 380.33 415.895 379.846 415.895 379.301C415.895 378.747 415.997 378.258 416.201 377.835C416.407 377.408 416.693 377.076 417.06 376.837C417.429 376.595 417.86 376.474 418.353 376.474C418.736 376.474 419.082 376.545 419.389 376.688C419.697 376.83 419.949 377.028 420.146 377.284C420.342 377.54 420.464 377.838 420.512 378.179H419.674C419.61 377.93 419.468 377.71 419.247 377.518C419.03 377.324 418.736 377.227 418.367 377.227C418.04 377.227 417.754 377.312 417.507 377.483C417.264 377.651 417.073 377.889 416.936 378.197C416.801 378.502 416.733 378.861 416.733 379.273C416.733 379.694 416.8 380.061 416.932 380.374C417.067 380.686 417.256 380.929 417.5 381.102C417.746 381.274 418.035 381.361 418.367 381.361C418.585 381.361 418.782 381.323 418.96 381.247C419.137 381.171 419.288 381.062 419.411 380.92C419.534 380.778 419.621 380.608 419.674 380.409H420.512C420.464 380.731 420.347 381.021 420.16 381.279C419.975 381.535 419.73 381.738 419.425 381.89C419.122 382.039 418.769 382.114 418.367 382.114ZM424.024 382.114C423.498 382.114 423.045 381.998 422.664 381.766C422.285 381.531 421.992 381.205 421.786 380.786C421.583 380.364 421.481 379.874 421.481 379.315C421.481 378.757 421.583 378.264 421.786 377.838C421.992 377.41 422.279 377.076 422.646 376.837C423.015 376.595 423.446 376.474 423.938 376.474C424.223 376.474 424.503 376.522 424.78 376.616C425.057 376.711 425.309 376.865 425.536 377.078C425.764 377.289 425.945 377.568 426.08 377.916C426.215 378.264 426.282 378.693 426.282 379.202V379.557H422.078V378.832H425.43C425.43 378.525 425.368 378.25 425.245 378.009C425.125 377.767 424.952 377.576 424.727 377.437C424.504 377.297 424.242 377.227 423.938 377.227C423.605 377.227 423.316 377.31 423.072 377.476C422.831 377.639 422.645 377.852 422.514 378.115C422.384 378.378 422.319 378.66 422.319 378.96V379.443C422.319 379.855 422.39 380.204 422.532 380.491C422.677 380.775 422.877 380.991 423.132 381.141C423.388 381.287 423.685 381.361 424.024 381.361C424.244 381.361 424.443 381.33 424.62 381.268C424.8 381.205 424.955 381.11 425.085 380.984C425.216 380.857 425.316 380.698 425.387 380.509L426.197 380.736C426.112 381.01 425.969 381.252 425.767 381.46C425.566 381.666 425.318 381.827 425.022 381.943C424.726 382.057 424.393 382.114 424.024 382.114Z" fill="#141541"/>
<path d="M370.95 406.818V388.636H372.115V406.818H370.95ZM374.87 394.091C374.785 393.371 374.439 392.812 373.833 392.415C373.227 392.017 372.484 391.818 371.603 391.818C370.959 391.818 370.396 391.922 369.913 392.131C369.435 392.339 369.061 392.625 368.791 392.99C368.526 393.355 368.393 393.769 368.393 394.233C368.393 394.621 368.485 394.955 368.67 395.234C368.859 395.509 369.101 395.739 369.394 395.923C369.688 396.103 369.996 396.252 370.318 396.371C370.64 396.484 370.936 396.577 371.205 396.648L372.683 397.045C373.061 397.145 373.483 397.282 373.947 397.457C374.416 397.633 374.863 397.872 375.289 398.175C375.72 398.473 376.075 398.857 376.355 399.325C376.634 399.794 376.774 400.369 376.774 401.051C376.774 401.837 376.568 402.547 376.156 403.182C375.749 403.816 375.152 404.321 374.366 404.695C373.585 405.069 372.635 405.256 371.518 405.256C370.476 405.256 369.574 405.088 368.812 404.751C368.054 404.415 367.458 403.946 367.022 403.345C366.591 402.744 366.347 402.045 366.291 401.25H368.109C368.156 401.799 368.341 402.254 368.663 402.614C368.99 402.969 369.401 403.234 369.899 403.409C370.401 403.58 370.94 403.665 371.518 403.665C372.19 403.665 372.794 403.556 373.329 403.338C373.864 403.116 374.288 402.808 374.6 402.415C374.913 402.017 375.069 401.553 375.069 401.023C375.069 400.54 374.934 400.147 374.664 399.844C374.394 399.541 374.039 399.295 373.599 399.105C373.159 398.916 372.683 398.75 372.171 398.608L370.382 398.097C369.245 397.77 368.346 397.304 367.683 396.697C367.02 396.091 366.688 395.298 366.688 394.318C366.688 393.504 366.909 392.794 367.349 392.188C367.794 391.577 368.391 391.103 369.139 390.767C369.892 390.426 370.732 390.256 371.66 390.256C372.597 390.256 373.431 390.424 374.16 390.76C374.889 391.091 375.467 391.546 375.893 392.124C376.324 392.701 376.551 393.357 376.575 394.091H374.87ZM384.528 390.455V405H382.766V392.301H382.681L379.13 394.659V392.869L382.766 390.455H384.528ZM389.101 405.114C388.751 405.114 388.45 404.988 388.199 404.737C387.948 404.486 387.823 404.186 387.823 403.835C387.823 403.485 387.948 403.184 388.199 402.933C388.45 402.682 388.751 402.557 389.101 402.557C389.452 402.557 389.752 402.682 390.003 402.933C390.254 403.184 390.38 403.485 390.38 403.835C390.38 404.067 390.321 404.28 390.202 404.474C390.089 404.669 389.935 404.825 389.741 404.943C389.551 405.057 389.338 405.114 389.101 405.114ZM397.596 405.199C396.526 405.199 395.614 404.908 394.861 404.325C394.108 403.738 393.533 402.888 393.135 401.776C392.738 400.658 392.539 399.309 392.539 397.727C392.539 396.155 392.738 394.813 393.135 393.7C393.538 392.583 394.116 391.731 394.868 391.143C395.626 390.552 396.535 390.256 397.596 390.256C398.656 390.256 399.563 390.552 400.316 391.143C401.073 391.731 401.651 392.583 402.049 393.7C402.451 394.813 402.653 396.155 402.653 397.727C402.653 399.309 402.454 400.658 402.056 401.776C401.658 402.888 401.083 403.738 400.33 404.325C399.577 404.908 398.666 405.199 397.596 405.199ZM397.596 403.636C398.656 403.636 399.48 403.125 400.067 402.102C400.654 401.08 400.948 399.621 400.948 397.727C400.948 396.468 400.813 395.395 400.543 394.51C400.278 393.625 399.894 392.95 399.393 392.486C398.895 392.022 398.296 391.79 397.596 391.79C396.545 391.79 395.723 392.308 395.131 393.345C394.539 394.377 394.243 395.838 394.243 397.727C394.243 398.987 394.376 400.057 394.641 400.938C394.906 401.818 395.287 402.488 395.785 402.947C396.287 403.407 396.89 403.636 397.596 403.636ZM405.01 402.017V400.568L411.403 390.455H412.454V392.699H411.743L406.914 400.341V400.455H415.522V402.017H405.01ZM411.857 405V401.577V400.902V390.455H413.533V405H411.857ZM422.729 405.199C421.896 405.199 421.145 405.033 420.477 404.702C419.81 404.37 419.275 403.916 418.872 403.338C418.47 402.76 418.25 402.102 418.212 401.364H419.916C419.983 402.022 420.281 402.566 420.811 402.997C421.346 403.423 421.985 403.636 422.729 403.636C423.325 403.636 423.856 403.497 424.32 403.217C424.789 402.938 425.155 402.554 425.421 402.067C425.691 401.574 425.825 401.018 425.825 400.398C425.825 399.763 425.686 399.197 425.406 398.7C425.132 398.198 424.753 397.803 424.27 397.514C423.787 397.225 423.235 397.079 422.615 397.074C422.17 397.069 421.713 397.138 421.244 397.28C420.776 397.417 420.39 397.595 420.087 397.812L418.439 397.614L419.32 390.455H426.877V392.017H420.797L420.286 396.307H420.371C420.669 396.07 421.043 395.874 421.493 395.717C421.943 395.561 422.412 395.483 422.899 395.483C423.789 395.483 424.583 395.696 425.279 396.122C425.979 396.544 426.529 397.121 426.926 397.855C427.329 398.589 427.53 399.427 427.53 400.369C427.53 401.297 427.322 402.126 426.905 402.855C426.493 403.58 425.925 404.152 425.2 404.574C424.476 404.991 423.652 405.199 422.729 405.199Z" fill="#141541"/>
<g filter="url(#filter1_d_2_1721)">
<rect x="364" y="304" width="66" height="46" rx="23" fill="white"/>
</g>
<rect x="368" y="307" width="58" height="40" rx="20" fill="url(#paint24_linear_2_1721)"/>
<line x1="385" y1="320" x2="385" y2="334" stroke="#D5D5D5" stroke-width="2" stroke-linecap="round"/>
<line x1="393" y1="320" x2="393" y2="334" stroke="#D5D5D5" stroke-width="2" stroke-linecap="round"/>
<line x1="401" y1="320" x2="401" y2="334" stroke="#D5D5D5" stroke-width="2" stroke-linecap="round"/>
<line x1="409" y1="320" x2="409" y2="334" stroke="#D5D5D5" stroke-width="2" stroke-linecap="round"/>
<path d="M713.218 169.994C713.218 179.471 705.535 187.154 696.058 187.154C686.58 187.154 678.897 179.471 678.897 169.994C678.897 160.516 686.58 152.833 696.058 152.833C705.535 152.833 713.218 160.516 713.218 169.994Z" fill="#1BA27A" stroke="white" stroke-width="1.5"/>
<path d="M704.463 161.115H687.504V165.209H693.936V171.227H698.031V165.209H704.463V161.115Z" fill="white"/>
<path d="M696.023 171.868C690.702 171.868 686.388 171.026 686.388 169.987C686.388 168.948 690.702 168.106 696.023 168.106C701.344 168.106 705.658 168.948 705.658 169.987C705.658 171.026 701.344 171.868 696.023 171.868ZM706.842 170.3C706.842 168.961 701.998 167.875 696.023 167.875C690.048 167.875 685.204 168.961 685.204 170.3C685.204 171.48 688.96 172.463 693.937 172.681V181.32H698.031V172.684C703.047 172.473 706.842 171.486 706.842 170.3Z" fill="white"/>
<path d="M666 152.75C675.528 152.75 683.25 160.474 683.25 170C683.25 179.528 675.528 187.25 666 187.25C656.474 187.25 648.75 179.527 648.75 170C648.75 160.474 656.474 152.75 666 152.75Z" fill="#F5AC37" stroke="white" stroke-width="1.5"/>
<path d="M666.663 171.271H673.503C673.649 171.271 673.718 171.271 673.728 171.08C673.784 170.384 673.784 169.684 673.728 168.988C673.728 168.852 673.661 168.796 673.514 168.796H659.902C659.734 168.796 659.688 168.852 659.688 169.01V171.013C659.688 171.271 659.688 171.271 659.958 171.271H666.663V171.271ZM672.964 166.456C672.984 166.405 672.984 166.349 672.964 166.299C672.85 166.051 672.715 165.813 672.558 165.59C672.321 165.21 672.043 164.859 671.725 164.544C671.575 164.354 671.402 164.183 671.207 164.038C670.234 163.209 669.076 162.623 667.832 162.328C667.204 162.187 666.563 162.12 665.92 162.125H659.879C659.71 162.125 659.688 162.192 659.688 162.339V166.332C659.688 166.501 659.688 166.546 659.901 166.546H672.883C672.883 166.546 672.996 166.524 673.019 166.456H672.964H672.964ZM672.964 173.611C672.773 173.59 672.58 173.59 672.389 173.611H659.913C659.745 173.611 659.688 173.611 659.688 173.836V177.741C659.688 177.92 659.688 177.966 659.913 177.966H665.673C665.949 177.987 666.224 177.967 666.494 177.91C667.33 177.85 668.152 177.668 668.936 177.37C669.221 177.271 669.497 177.142 669.757 176.987H669.835C671.186 176.285 672.282 175.182 672.974 173.827C672.974 173.827 673.053 173.657 672.964 173.613V173.611ZM657.428 179.99V179.923V177.302V176.413V173.769C657.428 173.623 657.428 173.601 657.248 173.601H654.806C654.671 173.601 654.615 173.601 654.615 173.421V171.283H657.225C657.371 171.283 657.428 171.283 657.428 171.092V168.977C657.428 168.842 657.428 168.809 657.248 168.809H654.806C654.671 168.809 654.615 168.809 654.615 168.629V166.649C654.615 166.525 654.615 166.492 654.795 166.492H657.214C657.382 166.492 657.428 166.492 657.428 166.278V160.214C657.428 160.035 657.428 159.989 657.653 159.989H666.09C666.702 160.014 667.31 160.081 667.912 160.192C669.152 160.421 670.344 160.864 671.433 161.497C672.156 161.922 672.821 162.435 673.413 163.027C673.859 163.489 674.26 163.99 674.617 164.523C674.971 165.063 675.265 165.641 675.496 166.244C675.524 166.401 675.675 166.507 675.832 166.481H677.845C678.104 166.481 678.104 166.481 678.115 166.729V168.574C678.115 168.754 678.048 168.799 677.867 168.799H676.315C676.157 168.799 676.112 168.799 676.123 169.001C676.185 169.687 676.185 170.374 676.123 171.06C676.123 171.251 676.123 171.273 676.338 171.273H678.114C678.193 171.375 678.114 171.476 678.114 171.578C678.126 171.708 678.126 171.84 678.114 171.971V173.333C678.114 173.524 678.058 173.58 677.889 173.58H675.763C675.615 173.552 675.471 173.647 675.436 173.794C674.93 175.11 674.12 176.291 673.074 177.237C672.691 177.581 672.29 177.905 671.87 178.204C671.42 178.463 670.981 178.733 670.52 178.947C669.67 179.329 668.779 179.611 667.865 179.79C666.996 179.945 666.116 180.016 665.232 180.004H657.424V179.992L657.428 179.99Z" fill="#FEFEFD"/>
<g opacity="0.4" filter="url(#filter2_d_2_1721)">
<circle cx="696.5" cy="249.5" r="10.5" fill="white"/>
</g>
<g opacity="0.4" filter="url(#filter3_d_2_1721)">
<circle cx="568.5" cy="404.5" r="10.5" fill="white"/>
</g>
<defs>
<filter id="filter0_d_2_1721" x="314" y="335" width="165" height="110" filterUnits="userSpaceOnUse" color-interpolation-filters="sRGB">
<feFlood flood-opacity="0" result="BackgroundImageFix"/>
<feColorMatrix in="SourceAlpha" type="matrix" values="0 0 0 0 0 0 0 0 0 0 0 0 0 0 0 0 0 0 127 0" result="hardAlpha"/>
<feOffset dy="4"/>
<feGaussianBlur stdDeviation="12"/>
<feComposite in2="hardAlpha" operator="out"/>
<feColorMatrix type="matrix" values="0 0 0 0 0 0 0 0 0 0 0 0 0 0 0 0 0 0 0.25 0"/>
<feBlend mode="normal" in2="BackgroundImageFix" result="effect1_dropShadow_2_1721"/>
<feBlend mode="normal" in="SourceGraphic" in2="effect1_dropShadow_2_1721" result="shape"/>
</filter>
<filter id="filter1_d_2_1721" x="340" y="284" width="114" height="94" filterUnits="userSpaceOnUse" color-interpolation-filters="sRGB">
<feFlood flood-opacity="0" result="BackgroundImageFix"/>
<feColorMatrix in="SourceAlpha" type="matrix" values="0 0 0 0 0 0 0 0 0 0 0 0 0 0 0 0 0 0 127 0" result="hardAlpha"/>
<feOffset dy="4"/>
<feGaussianBlur stdDeviation="12"/>
<feComposite in2="hardAlpha" operator="out"/>
<feColorMatrix type="matrix" values="0 0 0 0 0 0 0 0 0 0 0 0 0 0 0 0 0 0 0.15 0"/>
<feBlend mode="normal" in2="BackgroundImageFix" result="effect1_dropShadow_2_1721"/>
<feBlend mode="normal" in="SourceGraphic" in2="effect1_dropShadow_2_1721" result="shape"/>
</filter>
<filter id="filter2_d_2_1721" x="682" y="239" width="29" height="29" filterUnits="userSpaceOnUse" color-interpolation-filters="sRGB">
<feFlood flood-opacity="0" result="BackgroundImageFix"/>
<feColorMatrix in="SourceAlpha" type="matrix" values="0 0 0 0 0 0 0 0 0 0 0 0 0 0 0 0 0 0 127 0" result="hardAlpha"/>
<feOffset dy="4"/>
<feGaussianBlur stdDeviation="2"/>
<feComposite in2="hardAlpha" operator="out"/>
<feColorMatrix type="matrix" values="0 0 0 0 0 0 0 0 0 0 0 0 0 0 0 0 0 0 0.25 0"/>
<feBlend mode="normal" in2="BackgroundImageFix" result="effect1_dropShadow_2_1721"/>
<feBlend mode="normal" in="SourceGraphic" in2="effect1_dropShadow_2_1721" result="shape"/>
</filter>
<filter id="filter3_d_2_1721" x="554" y="394" width="29" height="29" filterUnits="userSpaceOnUse" color-interpolation-filters="sRGB">
<feFlood flood-opacity="0" result="BackgroundImageFix"/>
<feColorMatrix in="SourceAlpha" type="matrix" values="0 0 0 0 0 0 0 0 0 0 0 0 0 0 0 0 0 0 127 0" result="hardAlpha"/>
<feOffset dy="4"/>
<feGaussianBlur stdDeviation="2"/>
<feComposite in2="hardAlpha" operator="out"/>
<feColorMatrix type="matrix" values="0 0 0 0 0 0 0 0 0 0 0 0 0 0 0 0 0 0 0.25 0"/>
<feBlend mode="normal" in2="BackgroundImageFix" result="effect1_dropShadow_2_1721"/>
<feBlend mode="normal" in="SourceGraphic" in2="effect1_dropShadow_2_1721" result="shape"/>
</filter>
<linearGradient id="paint0_linear_2_1721" x1="396" y1="0" x2="396" y2="503" gradientUnits="userSpaceOnUse">
<stop stop-color="white"/>
<stop offset="1" stop-color="white" stop-opacity="0"/>
</linearGradient>
<radialGradient id="paint1_radial_2_1721" cx="0" cy="0" r="1" gradientUnits="userSpaceOnUse" gradientTransform="translate(396 295.5) rotate(90) scale(221.5 422.718)">
<stop stop-color="#D9D9D9"/>
<stop offset="0.827" stop-color="#D9D9D9" stop-opacity="0.395765"/>
<stop offset="1" stop-color="#D9D9D9" stop-opacity="0"/>
</radialGradient>
<linearGradient id="paint2_linear_2_1721" x1="396" y1="141.582" x2="396" y2="602.582" gradientUnits="userSpaceOnUse">
<stop stop-color="white"/>
<stop offset="1" stop-color="white" stop-opacity="0"/>
</linearGradient>
<linearGradient id="paint3_linear_2_1721" x1="396" y1="203.582" x2="396" y2="664.582" gradientUnits="userSpaceOnUse">
<stop stop-color="white"/>
<stop offset="1" stop-color="white" stop-opacity="0"/>
</linearGradient>
<linearGradient id="paint4_linear_2_1721" x1="396" y1="265.582" x2="396" y2="726.582" gradientUnits="userSpaceOnUse">
<stop stop-color="white"/>
<stop offset="1" stop-color="white" stop-opacity="0"/>
</linearGradient>
<linearGradient id="paint5_linear_2_1721" x1="396" y1="327.582" x2="396" y2="788.582" gradientUnits="userSpaceOnUse">
<stop stop-color="white"/>
<stop offset="1" stop-color="white" stop-opacity="0"/>
</linearGradient>
<linearGradient id="paint6_linear_2_1721" x1="396" y1="389.582" x2="396" y2="850.582" gradientUnits="userSpaceOnUse">
<stop stop-color="white"/>
<stop offset="1" stop-color="white" stop-opacity="0"/>
</linearGradient>
<linearGradient id="paint7_linear_2_1721" x1="396" y1="451.582" x2="396" y2="912.582" gradientUnits="userSpaceOnUse">
<stop stop-color="white"/>
<stop offset="1" stop-color="white" stop-opacity="0"/>
</linearGradient>
<linearGradient id="paint8_linear_2_1721" x1="427.004" y1="295.582" x2="888.004" y2="295.582" gradientUnits="userSpaceOnUse">
<stop stop-color="white"/>
<stop offset="1" stop-color="white" stop-opacity="0"/>
</linearGradient>
<linearGradient id="paint9_linear_2_1721" x1="489.004" y1="295.582" x2="950.004" y2="295.582" gradientUnits="userSpaceOnUse">
<stop stop-color="white"/>
<stop offset="1" stop-color="white" stop-opacity="0"/>
</linearGradient>
<linearGradient id="paint10_linear_2_1721" x1="551.004" y1="295.582" x2="1012" y2="295.582" gradientUnits="userSpaceOnUse">
<stop stop-color="white"/>
<stop offset="1" stop-color="white" stop-opacity="0"/>
</linearGradient>
<linearGradient id="paint11_linear_2_1721" x1="613.003" y1="295.582" x2="1074" y2="295.582" gradientUnits="userSpaceOnUse">
<stop stop-color="white"/>
<stop offset="1" stop-color="white" stop-opacity="0"/>
</linearGradient>
<linearGradient id="paint12_linear_2_1721" x1="675.003" y1="295.582" x2="1136" y2="295.582" gradientUnits="userSpaceOnUse">
<stop stop-color="white"/>
<stop offset="1" stop-color="white" stop-opacity="0"/>
</linearGradient>
<linearGradient id="paint13_linear_2_1721" x1="737.003" y1="295.582" x2="1198" y2="295.582" gradientUnits="userSpaceOnUse">
<stop stop-color="white"/>
<stop offset="1" stop-color="white" stop-opacity="0"/>
</linearGradient>
<linearGradient id="paint14_linear_2_1721" x1="55.001" y1="295.582" x2="516.001" y2="295.582" gradientUnits="userSpaceOnUse">
<stop stop-color="white"/>
<stop offset="1" stop-color="white" stop-opacity="0"/>
</linearGradient>
<linearGradient id="paint15_linear_2_1721" x1="116.997" y1="295.582" x2="577.997" y2="295.582" gradientUnits="userSpaceOnUse">
<stop stop-color="white"/>
<stop offset="1" stop-color="white" stop-opacity="0"/>
</linearGradient>
<linearGradient id="paint16_linear_2_1721" x1="178.997" y1="295.582" x2="639.997" y2="295.582" gradientUnits="userSpaceOnUse">
<stop stop-color="white"/>
<stop offset="1" stop-color="white" stop-opacity="0"/>
</linearGradient>
<linearGradient id="paint17_linear_2_1721" x1="240.996" y1="295.582" x2="701.996" y2="295.582" gradientUnits="userSpaceOnUse">
<stop stop-color="white"/>
<stop offset="1" stop-color="white" stop-opacity="0"/>
</linearGradient>
<linearGradient id="paint18_linear_2_1721" x1="302.996" y1="295.582" x2="763.996" y2="295.582" gradientUnits="userSpaceOnUse">
<stop stop-color="white"/>
<stop offset="1" stop-color="white" stop-opacity="0"/>
</linearGradient>
<linearGradient id="paint19_linear_2_1721" x1="364.996" y1="295.582" x2="825.996" y2="295.582" gradientUnits="userSpaceOnUse">
<stop stop-color="white"/>
<stop offset="1" stop-color="white" stop-opacity="0"/>
</linearGradient>
<linearGradient id="paint20_linear_2_1721" x1="396" y1="44" x2="396" y2="505" gradientUnits="userSpaceOnUse">
<stop stop-color="white"/>
<stop offset="1" stop-color="white" stop-opacity="0"/>
</linearGradient>
<linearGradient id="paint21_linear_2_1721" x1="77" y1="266" x2="714" y2="266" gradientUnits="userSpaceOnUse">
<stop stop-color="#F5AC37"/>
<stop offset="0.560988" stop-color="#B1A94C"/>
<stop offset="1" stop-color="#1BA27A"/>
</linearGradient>
<linearGradient id="paint22_linear_2_1721" x1="77" y1="359" x2="714" y2="359" gradientUnits="userSpaceOnUse">
<stop stop-color="#F5AC37"/>
<stop offset="0.560988" stop-color="#B1A94C"/>
<stop offset="1" stop-color="#1BA27A"/>
</linearGradient>
<linearGradient id="paint23_linear_2_1721" x1="77" y1="420" x2="714" y2="420" gradientUnits="userSpaceOnUse">
<stop stop-color="#F5AC37"/>
<stop offset="0.560988" stop-color="#B1A94C"/>
<stop offset="1" stop-color="#1BA27A"/>
</linearGradient>
<linearGradient id="paint24_linear_2_1721" x1="426" y1="327" x2="368" y2="327" gradientUnits="userSpaceOnUse">
<stop stop-color="#BBBBBB"/>
<stop offset="0.304446" stop-color="white"/>
<stop offset="0.648204" stop-color="white"/>
<stop offset="1" stop-color="#C1C1C1"/>
</linearGradient>
<clipPath id="clip0_2_1721">
<rect width="17.9947" height="25.2046" fill="white" transform="translate(24 66.7012)"/>
</clipPath>
</defs>
</svg>
