<svg width="32" height="32" viewBox="0 0 32 32" fill="none" xmlns="http://www.w3.org/2000/svg">
<path opacity="0.1" fill-rule="evenodd" clip-rule="evenodd" d="M0 16.5039C0 7.66735 7.16344 0.503906 16 0.503906C24.8366 0.503906 32 7.66735 32 16.5039C32 25.3405 24.8366 32.5039 16 32.5039C7.16344 32.5039 0 25.3405 0 16.5039Z" fill="white"/>
<path d="M21.588 9.9197L7.41507 15.3503C6.44783 15.7363 6.45342 16.2724 7.23761 16.5115L10.8764 17.6394L19.2954 12.3614C19.6935 12.1207 20.0572 12.2502 19.7582 12.5139L12.9372 18.6307H12.9356L12.9372 18.6315L12.6862 22.3583C13.0539 22.3583 13.2161 22.1907 13.4224 21.9929L15.1898 20.2852L18.8661 22.9834C19.544 23.3544 20.0308 23.1637 20.1995 22.3599L22.6128 11.0587C22.8598 10.0746 22.2347 9.62899 21.588 9.9197V9.9197Z" fill="white"/>
</svg>
