<svg width="40" height="34" viewBox="0 0 40 34" fill="none" xmlns="http://www.w3.org/2000/svg">
<path d="M4.48396 33.0001L5.49796 28.2681H7.62996L6.61596 33.0001H9.34596L10.386 28.2681H13.09V25.5901H10.88L11.504 22.8081H14.13V20.0521H11.998L13.012 15.4241H10.282L9.26796 20.0521H7.13596L8.14996 15.4241H5.39396L4.37996 20.0521H1.64996V22.8081H3.85996L3.26196 25.5901H0.609963V28.2681H2.74196L1.72796 33.0001H4.48396ZM6.61596 22.8081H8.74796L8.14996 25.5901H6.01796L6.61596 22.8081ZM27.175 33.4231C34.46 33.4231 39.348 29.4281 39.348 23.5531C39.348 20.1221 37.092 17.5841 33.144 16.3151C36.199 14.7171 37.891 12.4141 37.891 9.50012C37.891 4.37712 33.802 0.75812 27.128 0.75812C20.877 0.75812 16.083 4.89412 16.036 10.3931H22.381C22.428 7.62012 24.12 5.92812 26.799 5.92812C29.525 5.92812 31.17 7.47912 31.17 9.97012C31.17 12.5551 29.243 14.1531 26.047 14.1531H22.992V19.3231H26.423C30.324 19.3231 32.627 20.9681 32.627 23.7411C32.627 26.5611 30.653 28.2531 27.269 28.2531C24.026 28.2531 21.958 26.5141 21.77 23.6471H15.425C15.472 29.3811 20.313 33.4231 27.175 33.4231Z" fill="url(#paint0_linear_2_1966)"/>
<defs>
<linearGradient id="paint0_linear_2_1966" x1="32.6774" y1="-7.49988" x2="18.1345" y2="36.6615" gradientUnits="userSpaceOnUse">
<stop stop-color="#58C4FA"/>
<stop offset="1" stop-color="#4452FE"/>
</linearGradient>
</defs>
</svg>
