<svg width="59" height="33" viewBox="0 0 59 33" fill="none" xmlns="http://www.w3.org/2000/svg">
<g clip-path="url(#clip0_2_1861)">
<path d="M58.301 16.0853C58.301 24.5578 51.4331 31.4257 42.9606 31.4257C34.4884 31.4257 27.6202 24.5578 27.6202 16.0853C27.6202 7.61297 34.4884 0.744917 42.9606 0.744917C51.4331 0.744917 58.301 7.61296 58.301 16.0853Z" fill="#1BA27A" stroke="white" stroke-width="1.34091"/>
<path d="M50.4746 8.14807H35.314V11.8082H41.0643V17.1878H44.7243V11.8082H50.4746V8.14807Z" fill="white"/>
<path d="M42.9296 17.7609C38.1727 17.7609 34.3162 17.0081 34.3162 16.0793C34.3162 15.1507 38.1726 14.3977 42.9296 14.3977C47.6864 14.3977 51.5428 15.1507 51.5428 16.0793C51.5428 17.0081 47.6864 17.7609 42.9296 17.7609ZM52.6009 16.3596C52.6009 15.162 48.271 14.1913 42.9296 14.1913C37.5884 14.1913 33.2581 15.162 33.2581 16.3596C33.2581 17.4143 36.6157 18.2929 41.0649 18.4876V26.2103H44.7247V18.4907C49.2082 18.3021 52.6009 17.4197 52.6009 16.3596Z" fill="white"/>
</g>
<g clip-path="url(#clip1_2_1861)">
<path d="M16.0909 0.670577C24.6082 0.670577 31.5114 7.57514 31.5114 16.091C31.5114 24.6083 24.6082 31.5115 16.0909 31.5115C7.57504 31.5115 0.670455 24.6076 0.670455 16.091C0.670455 7.57518 7.57506 0.670577 16.0909 0.670577Z" fill="#F5AC37" stroke="white" stroke-width="1.34091"/>
<path d="M16.6838 17.2273H22.7981C22.9284 17.2273 22.99 17.2273 22.9994 17.0564C23.0494 16.4344 23.0494 15.8088 22.9994 15.186C22.9994 15.0651 22.9393 15.0151 22.8082 15.0151H10.6398C10.4892 15.0151 10.4486 15.0651 10.4486 15.2063V16.9963C10.4486 17.2273 10.4486 17.2273 10.6897 17.2273H16.6838ZM22.3166 12.9232C22.334 12.8776 22.334 12.8276 22.3166 12.7828C22.2145 12.5605 22.0935 12.3483 21.9531 12.1492C21.7416 11.8088 21.4925 11.4953 21.2087 11.2136C21.0747 11.0435 20.9198 10.8907 20.746 10.7611C19.8756 10.0203 18.8409 9.49607 17.7287 9.2325C17.1675 9.10651 16.594 9.04641 16.0191 9.05148H10.6188C10.4682 9.05148 10.4479 9.11158 10.4479 9.24264V12.8124C10.4479 12.9631 10.4479 13.0036 10.639 13.0036H22.2442C22.2442 13.0036 22.3448 12.9833 22.3651 12.9232H22.3158H22.3166ZM22.3166 19.3192C22.1457 19.3004 21.9733 19.3004 21.8025 19.3192H10.6499C10.4993 19.3192 10.4486 19.3192 10.4486 19.5205V23.0106C10.4486 23.1714 10.4486 23.2119 10.6499 23.2119H15.799C16.0452 23.2308 16.2914 23.2134 16.5325 23.162C17.2797 23.1084 18.0147 22.9462 18.7156 22.679C18.9705 22.5907 19.2167 22.4755 19.4491 22.3372H19.5194C20.7265 21.7094 21.7069 20.7232 22.3253 19.5125C22.3253 19.5125 22.3955 19.3605 22.3166 19.3206V19.3192ZM8.42764 25.0215V24.9614V22.6182V21.8238V19.4604C8.42764 19.3293 8.42764 19.3098 8.26689 19.3098H6.08446C5.96354 19.3098 5.91357 19.3098 5.91357 19.149V17.2381H8.24662C8.37696 17.2381 8.42764 17.2381 8.42764 17.0672V15.1766C8.42764 15.0557 8.42764 15.026 8.26689 15.026H6.08446C5.96354 15.026 5.91357 15.026 5.91357 14.8653V13.0956C5.91357 12.9848 5.91357 12.9551 6.07432 12.9551H8.23648C8.38709 12.9551 8.42764 12.9551 8.42764 12.7639V7.34333C8.42764 7.18258 8.42764 7.14203 8.62894 7.14203H16.1712C16.7186 7.16375 17.2624 7.22385 17.8004 7.32305C18.909 7.52797 19.9741 7.92405 20.948 8.48958C21.5939 8.86973 22.1884 9.32881 22.7177 9.8574C23.116 10.2709 23.4751 10.7184 23.7937 11.1948C24.1102 11.6778 24.373 12.1941 24.5794 12.7335C24.6047 12.874 24.7394 12.9688 24.8799 12.945H26.68C26.911 12.945 26.911 12.945 26.9211 13.1665V14.816C26.9211 14.9768 26.861 15.0173 26.6995 15.0173H25.3114C25.171 15.0173 25.1304 15.0173 25.1406 15.1983C25.1956 15.8109 25.1956 16.4257 25.1406 17.0383C25.1406 17.2092 25.1406 17.2294 25.3324 17.2294H26.9204C26.9906 17.32 26.9204 17.4105 26.9204 17.5017C26.9305 17.6183 26.9305 17.7363 26.9204 17.8529V19.0701C26.9204 19.241 26.8704 19.2917 26.7191 19.2917H24.8183C24.6858 19.2663 24.5569 19.351 24.5265 19.4828C24.074 20.6595 23.3499 21.7145 22.4143 22.5603C22.0725 22.868 21.7134 23.1576 21.3383 23.4248C20.9357 23.6565 20.544 23.8977 20.1312 24.0888C19.3717 24.4306 18.5752 24.6826 17.7576 24.8426C16.9814 24.9816 16.1943 25.0446 15.4043 25.0338H8.42475V25.0236L8.42764 25.0215Z" fill="#FEFEFD"/>
</g>
<defs>
<clipPath id="clip0_2_1861">
<rect width="32.1818" height="32.1818" fill="white" transform="translate(26.8181 0.00012207)"/>
</clipPath>
<clipPath id="clip1_2_1861">
<rect width="32.1818" height="32.1818" fill="white"/>
</clipPath>
</defs>
</svg>
