<svg width="32" height="32" viewBox="0 0 32 32" fill="none" xmlns="http://www.w3.org/2000/svg">
<path opacity="0.1" fill-rule="evenodd" clip-rule="evenodd" d="M0 16.5039C0 7.66735 7.16344 0.503906 16 0.503906C24.8366 0.503906 32 7.66735 32 16.5039C32 25.3405 24.8366 32.5039 16 32.5039C7.16344 32.5039 0 25.3405 0 16.5039Z" fill="white"/>
<path fill-rule="evenodd" clip-rule="evenodd" d="M15.5208 13.5027L15.5544 14.0563L14.9948 13.9885C12.9579 13.7286 11.1784 12.8473 9.66756 11.3672L8.92891 10.6328L8.73865 11.1751C8.33575 12.3841 8.59316 13.6608 9.43253 14.5195C9.8802 14.9941 9.77948 15.0619 9.00725 14.7794C8.73865 14.689 8.50363 14.6212 8.48124 14.6551C8.4029 14.7342 8.6715 15.7624 8.88414 16.1691C9.17513 16.7341 9.76828 17.2877 10.4174 17.6154L10.9658 17.8753L10.3167 17.8865C9.68994 17.8865 9.66756 17.8978 9.73471 18.1351C9.95854 18.8695 10.8427 19.6491 11.8276 19.9881L12.5214 20.2254L11.9171 20.5869C11.0218 21.1067 9.96973 21.4004 8.91772 21.423C8.41409 21.4343 8 21.4795 8 21.5134C8 21.6264 9.36538 22.2591 10.16 22.5077C12.5438 23.2421 15.3753 22.9258 17.5017 21.6716C19.0126 20.779 20.5235 19.0051 21.2286 17.2877C21.6091 16.3725 21.9896 14.7003 21.9896 13.8981C21.9896 13.3784 22.0232 13.3106 22.6499 12.6892C23.0192 12.3276 23.3662 11.9321 23.4333 11.8192C23.5452 11.6045 23.534 11.6045 22.9633 11.7966C22.012 12.1355 21.8777 12.0903 22.3477 11.5819C22.6947 11.2203 23.1088 10.565 23.1088 10.3729C23.1088 10.339 22.9409 10.3955 22.7506 10.4972C22.5492 10.6102 22.1015 10.7797 21.7658 10.8814L21.1614 11.0734L20.613 10.7006C20.3108 10.4972 19.8856 10.2712 19.6617 10.2034C19.0909 10.0453 18.218 10.0679 17.7032 10.2486C16.3042 10.7571 15.4201 12.0677 15.5208 13.5027Z" fill="white"/>
</svg>
