<svg width="39" height="33" viewBox="0 0 39 33" fill="none" xmlns="http://www.w3.org/2000/svg">
<path d="M4.40193 33.0001L5.41593 28.2681H7.54793L6.53393 33.0001H9.26393L10.3039 28.2681H13.0079V25.5901H10.7979L11.4219 22.8081H14.0479V20.0521H11.9159L12.9299 15.4241H10.1999L9.18593 20.0521H7.05393L8.06793 15.4241H5.31193L4.29793 20.0521H1.56793V22.8081H3.77793L3.17993 25.5901H0.527932V28.2681H2.65993L1.64593 33.0001H4.40193ZM6.53393 22.8081H8.66593L8.06793 25.5901H5.93593L6.53393 22.8081ZM38.232 27.1721H25.965L30.759 22.0021C36.305 16.4091 37.715 13.9651 37.715 10.1111C37.715 4.75312 33.062 0.75812 26.717 0.75812C19.902 0.75812 15.108 5.27012 15.108 11.6151H21.453C21.453 8.51312 23.333 6.58612 26.388 6.58612C29.161 6.58612 30.9 8.32512 30.9 10.9101C30.9 13.6831 29.349 15.6571 25.683 19.4171L16.048 29.2871V33.0001H38.232V27.1721Z" fill="url(#paint0_linear_2_1930)"/>
<defs>
<linearGradient id="paint0_linear_2_1930" x1="31.871" y1="-7.49988" x2="17.0516" y2="36.4543" gradientUnits="userSpaceOnUse">
<stop stop-color="#58C4FA"/>
<stop offset="1" stop-color="#4452FE"/>
</linearGradient>
</defs>
</svg>
