<svg width="32" height="32" viewBox="0 0 32 32" fill="none" xmlns="http://www.w3.org/2000/svg">
<path opacity="0.1" fill-rule="evenodd" clip-rule="evenodd" d="M0 16.5039C0 7.66735 7.16344 0.503906 16 0.503906C24.8366 0.503906 32 7.66735 32 16.5039C32 25.3405 24.8366 32.5039 16 32.5039C7.16344 32.5039 0 25.3405 0 16.5039Z" fill="white"/>
<path fill-rule="evenodd" clip-rule="evenodd" d="M22.6659 11.0029C23.4003 11.2044 23.9786 11.7982 24.1749 12.5522C24.5315 13.9187 24.5315 16.7701 24.5315 16.7701C24.5315 16.7701 24.5315 19.6213 24.1749 20.9879C23.9786 21.7419 23.4003 22.3357 22.6659 22.5373C21.3351 22.9034 15.9982 22.9034 15.9982 22.9034C15.9982 22.9034 10.6613 22.9034 9.33035 22.5373C8.596 22.3357 8.01767 21.7419 7.8214 20.9879C7.46484 19.6213 7.46484 16.7701 7.46484 16.7701C7.46484 16.7701 7.46484 13.9187 7.8214 12.5522C8.01767 11.7982 8.596 11.2044 9.33035 11.0029C10.6613 10.6367 15.9982 10.6367 15.9982 10.6367C15.9982 10.6367 21.3351 10.6367 22.6659 11.0029ZM14.3982 14.37V19.7033L18.6649 17.0368L14.3982 14.37Z" fill="white"/>
</svg>
