<svg width="40" height="40" viewBox="0 0 40 40" fill="none" xmlns="http://www.w3.org/2000/svg">
<path d="M40 20C40 31.0457 31.0457 40 20 40C8.95431 40 0 31.0457 0 20C0 8.95431 8.95431 0 20 0C31.0457 0 40 8.95431 40 20Z" fill="#3F4077" fill-opacity="0.3"/>
<path d="M27.6974 12.5075C26.1922 11.8032 24.5828 11.2914 22.9002 11C22.6935 11.3736 22.4521 11.8761 22.2856 12.2759C20.497 12.0069 18.7248 12.0069 16.969 12.2759C16.8026 11.8761 16.5557 11.3736 16.3472 11C14.6627 11.2914 13.0515 11.8051 11.5463 12.5112C8.51025 17.099 7.68724 21.5729 8.09874 25.9832C10.1124 27.4869 12.0638 28.4004 13.9824 28.9982C14.4561 28.3462 14.8785 27.6532 15.2425 26.9228C14.5493 26.6594 13.8854 26.3344 13.2581 25.9571C13.4246 25.8338 13.5873 25.7049 13.7446 25.5722C17.5707 27.3618 21.7278 27.3618 25.5082 25.5722C25.6673 25.7049 25.8301 25.8338 25.9947 25.9571C25.3655 26.3362 24.6998 26.6613 24.0067 26.9247C24.3706 27.6532 24.7913 28.3481 25.2668 29C27.1872 28.4022 29.1404 27.4888 31.1541 25.9832C31.6369 20.8705 30.3292 16.4377 27.6974 12.5075ZM15.7637 23.2709C14.6152 23.2709 13.6733 22.1986 13.6733 20.8929C13.6733 19.5872 14.5951 18.5131 15.7637 18.5131C16.9324 18.5131 17.8743 19.5853 17.8542 20.8929C17.856 22.1986 16.9324 23.2709 15.7637 23.2709ZM23.4891 23.2709C22.3405 23.2709 21.3986 22.1986 21.3986 20.8929C21.3986 19.5872 22.3204 18.5131 23.4891 18.5131C24.6577 18.5131 25.5997 19.5853 25.5795 20.8929C25.5795 22.1986 24.6577 23.2709 23.4891 23.2709Z" fill="#5865F2"/>
</svg>
