<svg width="40" height="40" viewBox="0 0 40 40" fill="none" xmlns="http://www.w3.org/2000/svg">
<path d="M40 20C40 31.0457 31.0457 40 20 40C8.9543 40 0 31.0457 0 20C0 8.9543 8.9543 0 20 0C31.0457 0 40 8.9543 40 20Z" fill="#3F4077" fill-opacity="0.3"/>
<path d="M24.2761 11.0814C23.9384 10.9138 23.667 11.0814 23.667 11.4679V26.6736L29.782 29.7921C30.4574 30.14 31.0002 29.8951 31.0002 29.2637V14.6186C31.0002 14.5606 30.964 14.5026 30.9097 14.4769L24.2821 11.0878L24.2761 11.0814Z" fill="#32FC8D"/>
<path d="M16.333 22.9286L23.3104 11.3633C23.5094 11.0347 23.9436 10.9058 24.2753 11.0734L30.927 14.4624C30.9692 14.4882 30.9873 14.5397 30.9632 14.5784L23.6662 26.672L16.333 22.9286Z" fill="#0BE370"/>
<path d="M10.0078 11.2859C9.447 11.0024 9.26005 11.215 9.5857 11.7562L16.3279 22.9285L23.6671 26.6719L16.346 14.5332C16.3339 14.5139 16.3218 14.501 16.3037 14.4945L10.0078 11.2859Z" fill="#14C767"/>
<path d="M16.3332 29.2493C16.3332 29.8872 15.8748 30.1771 15.32 29.8872L9.60909 26.9749C9.27138 26.8074 9 26.3499 9 25.9698V11.6919C9 11.1829 9.36786 10.951 9.81413 11.1829L16.297 14.4882C16.3211 14.5011 16.3332 14.5269 16.3332 14.5526V29.2493V29.2493Z" fill="#00AB6C"/>
</svg>
