<svg width="32" height="35" viewBox="0 0 32 35" fill="none" xmlns="http://www.w3.org/2000/svg">
<rect y="2" width="32" height="32" rx="16" fill="#D9D9D9" fill-opacity="0.35"/>
<path d="M13.1875 21.2031V20.9375C13.1927 20.026 13.2734 19.2995 13.4297 18.7578C13.5911 18.2161 13.8255 17.7786 14.1328 17.4453C14.4401 17.112 14.8099 16.8099 15.2422 16.5391C15.5651 16.3307 15.8542 16.1146 16.1094 15.8906C16.3646 15.6667 16.5677 15.4193 16.7188 15.1484C16.8698 14.8724 16.9453 14.5651 16.9453 14.2266C16.9453 13.8672 16.8594 13.5521 16.6875 13.2812C16.5156 13.0104 16.2839 12.8021 15.9922 12.6562C15.7057 12.5104 15.388 12.4375 15.0391 12.4375C14.7005 12.4375 14.3802 12.513 14.0781 12.6641C13.776 12.8099 13.5286 13.0286 13.3359 13.3203C13.1432 13.6068 13.0391 13.9635 13.0234 14.3906H9.83594C9.86198 13.349 10.112 12.4896 10.5859 11.8125C11.0599 11.1302 11.6875 10.6224 12.4687 10.2891C13.25 9.95052 14.112 9.78125 15.0547 9.78125C16.0911 9.78125 17.0078 9.95312 17.8047 10.2969C18.6016 10.6354 19.2266 11.1276 19.6797 11.7734C20.1328 12.4193 20.3594 13.1979 20.3594 14.1094C20.3594 14.7187 20.2578 15.2604 20.0547 15.7344C19.8568 16.2031 19.5781 16.6198 19.2188 16.9844C18.8594 17.3437 18.4349 17.6693 17.9453 17.9609C17.5339 18.2057 17.1953 18.4609 16.9297 18.7266C16.6693 18.9922 16.474 19.2995 16.3438 19.6484C16.2188 19.9974 16.1536 20.4271 16.1484 20.9375V21.2031H13.1875ZM14.7344 26.2031C14.2135 26.2031 13.7682 26.0208 13.3984 25.6562C13.0339 25.2865 12.8542 24.8437 12.8594 24.3281C12.8542 23.8177 13.0339 23.3802 13.3984 23.0156C13.7682 22.651 14.2135 22.4687 14.7344 22.4687C15.2292 22.4687 15.6641 22.651 16.0391 23.0156C16.4141 23.3802 16.6042 23.8177 16.6094 24.3281C16.6042 24.6719 16.513 24.987 16.3359 25.2734C16.1641 25.5547 15.9375 25.7812 15.6562 25.9531C15.375 26.1198 15.0677 26.2031 14.7344 26.2031Z" fill="white"/>
</svg>
