<svg width="56" height="56" viewBox="0 0 56 56" fill="none" xmlns="http://www.w3.org/2000/svg">
<circle cx="28" cy="28" r="28" fill="#4452FE"/>
<path d="M41 24C41 23.4696 40.7893 22.9609 40.4142 22.5858C40.0391 22.2107 39.5304 22 39 22H35V18C35 17.4696 34.7893 16.9609 34.4142 16.5858C34.0391 16.2107 33.5304 16 33 16H17C16.4696 16 15.9609 16.2107 15.5858 16.5858C15.2107 16.9609 15 17.4696 15 18V34C14.9995 34.1894 15.0534 34.3749 15.1553 34.5344C15.2573 34.694 15.403 34.8209 15.575 34.9C15.7077 34.9638 15.8528 34.998 16 35C16.2284 35.0015 16.45 34.9218 16.625 34.775L21 31.25V35C21 35.5304 21.2107 36.0391 21.5858 36.4142C21.9609 36.7893 22.4696 37 23 37H34.7L39.375 40.775C39.55 40.9218 39.7716 41.0015 40 41C40.1513 40.9982 40.3005 40.9641 40.4375 40.9C40.6063 40.8179 40.7485 40.6899 40.848 40.5308C40.9475 40.3716 41.0002 40.1877 41 40V24ZM35.6875 35.225C35.5081 35.0773 35.2824 34.9977 35.05 35H23V31H33C33.5304 31 34.0391 30.7893 34.4142 30.4142C34.7893 30.0391 35 29.5304 35 29V24H39V37.9L35.6875 35.225Z" fill="white"/>
</svg>
