<svg width="176" height="256" viewBox="0 0 176 256" fill="none" xmlns="http://www.w3.org/2000/svg">
<g clip-path="url(#clip0_119_1403)">
<path opacity="0.6" d="M86.5049 19V250.797C86.5049 252.328 85.8883 253.711 84.839 254.564C84.0424 255.213 83.0371 255.626 81.9299 255.584L79.404 255.49C76.8505 255.393 74.5479 253.045 74.5479 250.362V19.3934L86.5049 19.0009V19Z" fill="white" fill-opacity="0.1"/>
<path d="M91.3126 10.686C91.3126 14.5978 89.3352 18.0995 86.3563 20.1588C84.6803 21.3186 82.6873 22.0204 80.5556 22.0841C79.4971 22.1155 78.4725 21.99 77.5077 21.7231C76.7809 21.5236 76.0881 21.2457 75.4357 20.8975C75.2713 20.807 75.1059 20.7174 74.9441 20.6168C71.8981 18.7727 69.8721 15.3651 69.8721 11.4063C69.8721 5.32727 74.6474 0.226145 80.5547 0.00728818C86.4849 -0.212492 91.3117 4.56543 91.3117 10.687L91.3126 10.686Z" fill="white" fill-opacity="0.1"/>
<path d="M86.3877 10.2859C86.3877 13.3268 84.8504 16.0491 82.5349 17.6504C81.232 18.5526 79.6828 19.0974 78.0252 19.1473C77.2019 19.1722 76.4062 19.0743 75.6555 18.8665C75.0904 18.7114 74.5519 18.4953 74.0438 18.2247C73.9152 18.1546 73.7874 18.0844 73.6615 18.0059C71.2927 16.5727 69.7188 13.9233 69.7188 10.8446C69.7188 6.11835 73.4309 2.15214 78.0243 1.98223C82.6351 1.81139 86.3877 5.52642 86.3877 10.2849V10.2859Z" fill="white" fill-opacity="0.1"/>
<path d="M19.3498 16.1011L115.491 31.0683C115.58 31.0822 115.606 31.2041 115.532 31.2585L101.984 41.2189C101.8 41.3537 101.752 41.6169 101.874 41.8108L111.562 57.1917C111.61 57.2674 111.549 57.3681 111.462 57.3552L15.2609 42.3778C14.9862 42.3353 14.7326 42.2042 14.535 42.0019L0.197229 27.4078C0.136585 27.3459 0.150368 27.2397 0.224795 27.1954L18.4833 16.2728C18.747 16.1149 19.0521 16.0549 19.3507 16.1011H19.3498Z" fill="white" fill-opacity="0.1"/>
<path d="M24.0814 102.61L117.969 94.6259C118.162 94.6092 118.278 94.8355 118.154 94.9842L107.816 107.326C107.674 107.495 107.688 107.759 107.845 107.912L120.505 120.243C120.567 120.303 120.53 120.409 120.443 120.417L26.2168 128.43C25.9485 128.453 25.6784 128.387 25.4459 128.241L8.58217 117.732C8.50958 117.687 8.49764 117.585 8.5592 117.525L23.3022 102.973C23.5154 102.762 23.7892 102.635 24.0814 102.61V102.61Z" fill="white" fill-opacity="0.1"/>
<path opacity="0.56" d="M79.6015 105.443L27.2698 109.554C27.076 109.57 26.9312 109.74 26.9464 109.935L27.1349 112.358C27.15 112.552 27.3194 112.698 27.5131 112.683L79.8448 108.571C80.0386 108.556 80.1834 108.386 80.1682 108.191L79.9798 105.768C79.9646 105.573 79.7953 105.428 79.6015 105.443Z" fill="black"/>
<path opacity="0.56" d="M79.8806 116.873L27.9672 120.951C27.7742 120.966 27.6033 120.82 27.5886 120.626L27.4131 118.366C27.3984 118.172 27.5436 118 27.7366 117.985L79.65 113.907C79.8429 113.893 80.0138 114.038 80.0285 114.232L80.204 116.493C80.2187 116.687 80.0736 116.859 79.8806 116.873V116.873Z" fill="black"/>
<path d="M140.511 58.3772L37.6678 66.9625C37.4987 66.9763 37.4353 67.1924 37.5695 67.2968L50.9186 77.6043C51.0996 77.7447 51.1299 78.0051 50.9857 78.1833L39.4577 92.4404C39.4008 92.5115 39.4559 92.6168 39.546 92.6085L142.668 84.0001C142.962 83.9752 143.241 83.8644 143.468 83.6815L159.859 70.4605C159.927 70.406 159.92 70.3008 159.847 70.2537L141.413 58.5951C141.146 58.4271 140.828 58.3495 140.509 58.3763L140.511 58.3772Z" fill="white" fill-opacity="0.1"/>
<path opacity="0.56" d="M138.83 65.2106L87.7171 69.2263C87.5233 69.2416 87.3785 69.4118 87.3936 69.6065L87.5896 72.1263C87.6048 72.321 87.7742 72.4666 87.9679 72.4513L139.081 68.4356C139.275 68.4204 139.42 68.2501 139.405 68.0554L139.209 65.5356C139.194 65.3409 139.024 65.1954 138.83 65.2106Z" fill="black"/>
<path opacity="0.56" d="M138.915 73.9341L88.2102 77.9177C88.0165 77.933 87.8717 78.1032 87.8868 78.2979L88.0698 80.6511C88.085 80.8458 88.2544 80.9913 88.4481 80.9761L139.153 76.9924C139.347 76.9772 139.491 76.807 139.476 76.6123L139.293 74.2591C139.278 74.0644 139.109 73.9189 138.915 73.9341Z" fill="black"/>
<path d="M84.1121 40.163C84.4353 38.1624 83.0835 36.2774 81.0928 35.9526C79.1022 35.6279 77.2266 36.9864 76.9034 38.987C76.5803 40.9876 77.9321 42.8726 79.9227 43.1974C81.9133 43.5221 83.789 42.1636 84.1121 40.163Z" fill="white" fill-opacity="0.1"/>
<path d="M80.7538 41.241C81.991 41.241 82.994 40.233 82.994 38.9896C82.994 37.7463 81.991 36.7383 80.7538 36.7383C79.5166 36.7383 78.5137 37.7463 78.5137 38.9896C78.5137 40.233 79.5166 41.241 80.7538 41.241Z" fill="white" fill-opacity="0.1"/>
<path d="M83.346 77.6489C83.7921 75.7493 82.6215 73.8459 80.7313 73.3976C78.8412 72.9492 76.9472 74.1257 76.5011 76.0253C76.055 77.9249 77.2256 79.8283 79.1158 80.2766C81.0059 80.725 82.8999 79.5485 83.346 77.6489Z" fill="white" fill-opacity="0.1"/>
<path d="M80.1662 78.4477C81.3582 78.4477 82.3246 77.4766 82.3246 76.2786C82.3246 75.0805 81.3582 74.1094 80.1662 74.1094C78.9742 74.1094 78.0078 75.0805 78.0078 76.2786C78.0078 77.4766 78.9742 78.4477 80.1662 78.4477Z" fill="white" fill-opacity="0.1"/>
<path d="M82.7265 112.87C84.1532 111.436 84.1532 109.111 82.7265 107.677C81.2998 106.243 78.9866 106.243 77.5599 107.677C76.1332 109.111 76.1332 111.436 77.5599 112.87C78.9866 114.304 81.2998 114.304 82.7265 112.87Z" fill="white" fill-opacity="0.1"/>
<path d="M82.5725 110.202C82.8569 108.99 82.1105 107.777 80.9054 107.491C79.7003 107.205 78.4928 107.955 78.2084 109.166C77.9239 110.378 78.6703 111.591 79.8754 111.877C81.0805 112.163 82.288 111.413 82.5725 110.202Z" fill="white" fill-opacity="0.1"/>
<path opacity="0.56" d="M70.0338 30.8188L23.2607 23.3989C23.0687 23.3684 22.8885 23.5002 22.8582 23.6931L22.5039 25.9489C22.4736 26.1418 22.6047 26.3229 22.7967 26.3534L69.5698 33.7733C69.7618 33.8038 69.9419 33.672 69.9723 33.4791L70.3265 31.2233C70.3569 31.0304 70.2258 30.8493 70.0338 30.8188Z" fill="black"/>
<path opacity="0.56" d="M68.2448 38.6814L21.8457 31.3208C21.6537 31.2903 21.4735 31.422 21.4432 31.615L21.1128 33.7184C21.0825 33.9114 21.2136 34.0925 21.4056 34.1229L67.8047 41.4835C67.9967 41.514 68.1769 41.3823 68.2072 41.1893L68.5376 39.0859C68.5679 38.8929 68.4368 38.7118 68.2448 38.6814Z" fill="black"/>
<path d="M86.382 249.168C86.0575 249.043 85.7991 248.795 85.6622 248.475C83.6601 243.806 69.6221 207.659 104.721 185.894C138.04 165.232 151.57 162.562 156.924 147.076C157.549 145.267 160.146 145.409 160.574 147.273C163.769 161.201 166.474 192.583 130.38 204.271C90.5648 217.164 87.9889 240.96 88.1307 247.928C88.1493 248.85 87.238 249.497 86.382 249.168Z" fill="white" fill-opacity="0.1"/>
<path d="M90.5662 250.777C89.798 250.482 89.3144 249.719 89.3791 248.896C89.8189 243.288 92.5261 222.582 108.61 220.707C126.317 218.642 135.903 237.018 150.708 227.883C151.487 227.403 152.419 228.201 152.062 229.046C149.526 235.04 141.373 248.387 119.531 246.32C96.1514 244.107 92.989 246.119 92.6856 249.465C92.592 250.497 91.5293 251.146 90.5664 250.776L90.5662 250.777Z" fill="white" fill-opacity="0.1"/>
<path opacity="0.47" d="M152.166 162.979C151.595 164.053 150.94 165.049 150.226 166.014C149.516 166.978 148.758 167.907 147.965 168.803C147.172 169.701 146.342 170.568 145.468 171.386C144.597 172.208 143.702 173.009 142.769 173.76C139.049 176.787 134.869 179.23 130.467 181.114C128.27 182.054 125.989 182.844 123.724 183.532C121.493 184.213 119.306 185.048 117.173 186.007C112.91 187.928 108.865 190.353 105.16 193.218C101.453 196.081 98.1017 199.407 95.2255 203.106C92.3462 206.801 89.9779 210.905 88.2672 215.276C86.5528 219.646 85.4988 224.275 85.0969 228.965C84.6848 233.659 84.968 238.405 85.7235 243.069C85.7462 243.203 85.656 243.33 85.5231 243.352C85.3931 243.374 85.2691 243.286 85.2435 243.158C84.3276 238.485 83.946 233.683 84.2589 228.904C84.4042 226.514 84.7304 224.134 85.2269 221.787C85.7376 219.445 86.4037 217.131 87.2583 214.887C88.9491 210.391 91.319 206.154 94.219 202.328C97.1206 198.499 100.562 195.098 104.335 192.147C108.114 189.199 112.239 186.704 116.596 184.717C118.775 183.725 121.014 182.861 123.304 182.15L124.989 181.624C125.55 181.456 126.101 181.263 126.652 181.069L127.48 180.781L128.298 180.466L129.116 180.151L129.924 179.814C132.079 178.91 134.19 177.896 136.218 176.733C138.248 175.573 140.216 174.297 142.071 172.866C143.94 171.455 145.698 169.894 147.346 168.223C148.981 166.547 150.517 164.731 151.771 162.765L151.779 162.751C151.846 162.647 151.984 162.616 152.087 162.683C152.185 162.747 152.217 162.875 152.163 162.978L152.166 162.979Z" fill="black"/>
<path opacity="0.47" d="M90.6307 246.909C90.707 246.725 90.738 246.539 90.7739 246.352L90.8896 245.792C90.9693 245.42 91.0546 245.048 91.1424 244.677C91.3207 243.937 91.5143 243.2 91.7238 242.468C92.1436 241.004 92.6228 239.556 93.1712 238.133C94.2749 235.295 95.6363 232.532 97.4655 230.07C98.3779 228.841 99.4198 227.699 100.603 226.715C101.783 225.727 103.128 224.927 104.576 224.387C106.027 223.858 107.582 223.605 109.123 223.652C109.893 223.673 110.663 223.752 111.418 223.901C112.175 224.038 112.917 224.243 113.646 224.48C114.378 224.724 115.075 225.002 115.783 225.274L117.896 226.105C119.302 226.666 120.701 227.242 122.096 227.827C124.888 228.993 127.656 230.212 130.454 231.336C131.854 231.894 133.264 232.426 134.698 232.868C136.131 233.307 137.593 233.656 139.074 233.78C140.552 233.914 142.052 233.788 143.471 233.349C144.892 232.918 146.218 232.192 147.44 231.327C147.53 231.263 147.654 231.285 147.718 231.375C147.78 231.464 147.759 231.587 147.671 231.652C146.434 232.549 145.078 233.314 143.603 233.78C142.133 234.254 140.565 234.404 139.034 234.282C137.5 234.16 136.003 233.804 134.547 233.363C133.091 232.918 131.669 232.385 130.26 231.828C127.445 230.706 124.675 229.495 121.884 228.339C119.098 227.184 116.287 226.045 113.466 225.023C112.761 224.788 112.044 224.583 111.315 224.448C110.588 224.298 109.849 224.217 109.109 224.192C107.629 224.135 106.144 224.368 104.749 224.864C103.357 225.371 102.056 226.13 100.904 227.082C99.749 228.028 98.7234 229.135 97.817 230.335C95.9968 232.733 94.6195 235.455 93.4981 238.261C92.94 239.667 92.4494 241.1 92.0181 242.552C91.8023 243.278 91.6035 244.008 91.4189 244.743C91.3269 245.11 91.2397 245.478 91.1568 245.848L91.0364 246.403C90.9974 246.587 90.9551 246.773 90.9646 246.964C90.9695 247.06 90.896 247.141 90.8003 247.146C90.7045 247.152 90.6238 247.078 90.6188 246.982C90.6176 246.955 90.622 246.929 90.6313 246.906L90.6307 246.909Z" fill="black"/>
</g>
<defs>
<clipPath id="clip0_119_1403">
<rect width="176" height="256" fill="white"/>
</clipPath>
</defs>
</svg>
