<svg width="56" height="56" viewBox="0 0 56 56" fill="none" xmlns="http://www.w3.org/2000/svg">
<circle cx="28" cy="28" r="28" fill="#4452FE"/>
<path d="M26.975 40.85C26.9197 41.067 26.794 41.2596 26.6175 41.3975C26.4411 41.5355 26.2239 41.6111 26 41.6125C25.9193 41.6122 25.8392 41.5995 25.7625 41.575L21.9875 40.6375C21.6813 40.5601 21.3982 40.41 21.1625 40.2L18.35 37.75C18.2515 37.6646 18.1708 37.5607 18.1124 37.4441C18.0541 37.3276 18.0193 37.2007 18.01 37.0707C18.0007 36.9407 18.0171 36.8101 18.0583 36.6864C18.0995 36.5628 18.1646 36.4484 18.25 36.35C18.3353 36.2515 18.4392 36.1707 18.5558 36.1124C18.6723 36.0541 18.7992 36.0193 18.9292 36.01C19.0592 36.0007 19.1898 36.0171 19.3135 36.0583C19.4371 36.0995 19.5515 36.1646 19.65 36.25L22.475 38.7L26.2375 39.6375C26.4948 39.7025 26.7163 39.8661 26.8542 40.0929C26.9921 40.3196 27.0355 40.5915 26.975 40.85V40.85ZM43.55 28.95C43.4678 29.2017 43.3358 29.4344 43.1618 29.6341C42.9879 29.8338 42.7755 29.9965 42.5375 30.1125L39.625 31.575L37.7625 33.7625H37.7375C37.7375 33.775 37.725 33.775 37.725 33.7875H37.7125L33.1125 38.3875C32.7312 38.7601 32.2205 38.9706 31.6875 38.975C31.5272 38.9735 31.3677 38.9525 31.2125 38.9125L23.9625 37.125C23.6887 37.0611 23.4326 36.9373 23.2125 36.7625L16.4625 31.4875L13.4625 29.9875C12.9832 29.7446 12.6193 29.3223 12.45 28.8125C12.3699 28.5598 12.3408 28.2938 12.3644 28.0299C12.388 27.766 12.4638 27.5093 12.5875 27.275L15.6625 21.3875C15.9055 20.9241 16.3193 20.5737 16.8164 20.4103C17.3134 20.247 17.8545 20.2836 18.325 20.5125L21.125 21.9125L27.2125 20.1375C27.6688 20.0131 28.1539 20.0484 28.5875 20.2375L32.7125 22.1125H34.7625L37.675 20.65C38.1434 20.4169 38.6845 20.3767 39.1822 20.5379C39.6799 20.6991 40.0947 21.049 40.3375 21.5125L43.4125 27.4C43.5365 27.6365 43.6124 27.8952 43.636 28.1612C43.6596 28.4272 43.6304 28.6953 43.55 28.95V28.95ZM35.4625 33.225L31.5125 30.35L30.5 31.1125C29.6329 31.7577 28.5808 32.1062 27.5 32.1062C26.4191 32.1062 25.3671 31.7577 24.5 31.1125L23.825 30.6C23.5944 30.4292 23.4035 30.2105 23.2654 29.9589C23.1274 29.7073 23.0454 29.4289 23.0252 29.1426C23.0051 28.8564 23.0471 28.5691 23.1485 28.3007C23.2498 28.0322 23.4081 27.7889 23.6125 27.5875L28.5 22.6875L28.725 22.5L27.7625 22.0625L21.675 23.8375L18.275 30.3625L24.45 35.1875L31.6875 37L35.4625 33.225ZM37.8 30.6375L34.4 24.1125H29.9125L25.025 29L25.7 29.5125C26.2216 29.8962 26.8523 30.1032 27.5 30.1032C28.1476 30.1032 28.7783 29.8962 29.3 29.5125L30.9 28.3125C31.0706 28.1837 31.2779 28.1131 31.4916 28.1108C31.7054 28.1086 31.9142 28.1749 32.0875 28.3L36.8375 31.75L37.8 30.6375Z" fill="white"/>
</svg>
