<svg width="172" height="466" viewBox="0 0 172 466" fill="none" xmlns="http://www.w3.org/2000/svg">
<g opacity="0.2" clip-path="url(#clip0_119_1321)">
<path d="M115.163 252.079H80.0341V237.055C80.0341 234.495 80.7152 232.06 82.0522 229.79C83.2758 227.721 84.8399 225.69 86.7067 223.76C88.5104 221.906 90.4403 220.064 92.4585 218.286C94.3884 216.583 96.23 214.792 97.9202 212.95C99.5474 211.184 100.91 209.33 101.969 207.438C102.94 205.697 103.407 203.843 103.407 201.736C103.407 200.349 103.18 198.999 102.739 197.712C102.31 196.476 101.679 195.379 100.847 194.47C100.014 193.55 98.9924 192.793 97.7941 192.213C96.6336 191.658 95.2714 191.367 93.7325 191.367C91.6765 191.367 90.0367 191.708 88.851 192.389C87.6401 193.083 86.7319 193.953 86.076 195.051C85.3822 196.211 84.9029 197.574 84.6507 199.1C84.3732 200.79 84.2344 202.531 84.2344 204.284V206.706C84.2344 207.387 84.2849 208.106 84.3858 208.813L84.7389 211.323H47.1124L46.9106 209.355C46.797 208.195 46.6709 207.072 46.5574 205.987C46.4312 204.839 46.3682 203.616 46.3682 202.367C46.3682 196.186 47.6926 190.522 50.3036 185.54C52.902 180.595 56.5474 176.319 61.1514 172.825C65.7049 169.369 71.1793 166.694 77.4104 164.865C82.9604 163.238 89.0276 162.343 95.4606 162.166V0H99.8501V166.53H97.6553C90.8187 166.53 84.411 167.388 78.6465 169.078C72.9326 170.756 67.9375 173.191 63.8129 176.319C59.726 179.422 56.4969 183.206 54.2013 187.583C51.9182 191.922 50.7577 196.905 50.7577 202.367C50.7577 203.464 50.8082 204.524 50.9217 205.52C50.9722 205.987 51.0226 206.466 51.0731 206.946H79.8322C79.8322 206.87 79.8322 206.794 79.8322 206.719V204.297C79.8322 202.316 79.9836 200.336 80.2989 198.419C80.6395 196.325 81.308 194.445 82.3045 192.805C83.3388 191.09 84.802 189.677 86.6436 188.618C88.4978 187.545 90.8692 187.003 93.7073 187.003C95.902 187.003 97.9076 187.432 99.6609 188.277C101.376 189.097 102.865 190.207 104.076 191.557C105.287 192.906 106.22 194.508 106.838 196.299C107.444 198.053 107.746 199.882 107.746 201.761C107.746 204.587 107.078 207.223 105.753 209.595C104.53 211.79 102.966 213.921 101.099 215.94C99.3077 217.882 97.3652 219.774 95.3218 221.591C93.3919 223.294 91.5377 225.059 89.8223 226.825C88.1951 228.516 86.8328 230.269 85.7859 232.035C84.8399 233.637 84.3732 235.289 84.3732 237.068V247.702H110.723V242.252C110.723 240.083 111.707 237.989 113.649 236.046C115.251 234.444 117.257 232.767 119.616 231.039C121.886 229.373 124.333 227.557 126.97 225.564C129.48 223.672 131.851 221.477 134.033 219.043C136.165 216.671 137.969 213.959 139.394 210.995C140.769 208.144 141.463 204.801 141.463 201.055C141.463 195.858 140.416 191.09 138.347 186.864C136.278 182.639 133.314 178.993 129.555 176.029C125.746 173.027 121.104 170.668 115.731 169.028L117.017 164.827C122.908 166.631 128.042 169.242 132.267 172.585C136.543 175.966 139.911 180.116 142.27 184.934C144.629 189.753 145.827 195.177 145.827 201.055C145.827 205.457 144.982 209.443 143.329 212.9C141.715 216.242 139.684 219.295 137.275 221.982C134.904 224.631 132.318 227.015 129.581 229.071C126.932 231.064 124.472 232.905 122.176 234.583C119.994 236.172 118.165 237.711 116.727 239.149C115.642 240.234 115.087 241.281 115.087 242.252V252.091L115.163 252.079Z" fill="white"/>
<path d="M99.8752 465.999H95.4982V292.405H80.1348V259.016H115.592V290.21H111.202V263.405H84.5243V288.028H99.8752V465.999Z" fill="white"/>
<path d="M35.8099 304.377V297.969C35.8099 297.048 36.0495 296.203 36.5288 295.383C37.0586 294.475 37.7524 293.592 38.5849 292.734C39.4552 291.839 40.3886 290.943 41.3599 290.085C42.3942 289.177 43.3655 288.218 44.2736 287.234C45.207 286.225 46.0017 285.153 46.6072 284.043C47.2631 282.857 47.6037 281.546 47.6037 280.133C47.6037 279.199 47.4523 278.279 47.1496 277.408C46.8342 276.513 46.3801 275.718 45.7747 275.049C45.1692 274.381 44.425 273.826 43.5799 273.41C42.7095 272.993 41.7131 272.779 40.6157 272.779C39.2029 272.779 38.0173 273.044 37.0965 273.586C36.1757 274.116 35.4567 274.81 34.9395 275.667C34.4476 276.487 34.107 277.433 33.943 278.468C33.7917 279.426 33.7034 280.423 33.7034 281.419C33.7034 281.419 33.7034 282.782 33.7034 282.845H18.9832C18.958 282.567 18.9328 282.302 18.8949 282.038C18.8445 281.533 18.8066 280.991 18.8066 280.436C18.8066 277.66 19.3995 275.138 20.5473 272.918C21.7078 270.698 23.3602 268.768 25.4288 267.203C27.5227 265.614 30.058 264.378 32.9466 263.533C35.8729 262.675 39.1146 262.246 42.5708 262.246C46.0269 262.246 49.0038 262.675 51.7409 263.507C54.4655 264.34 56.8116 265.538 58.7541 267.065C60.6588 268.578 62.1598 270.42 63.2194 272.564C64.2663 274.709 64.7961 277.131 64.7961 279.767C64.7961 281.672 64.4429 283.375 63.7491 284.825C63.0302 286.326 62.1094 287.701 61.0246 288.912C59.9146 290.148 58.7163 291.258 57.4423 292.217C56.1179 293.214 54.8817 294.134 53.7339 294.98C52.5482 295.85 51.5391 296.695 50.7318 297.502C49.7732 298.461 49.2813 299.495 49.2813 300.568V304.352H35.7846L35.8099 304.377Z" fill="white"/>
<path d="M49.521 311.176H35.8604V323.802H49.521V311.176Z" fill="white"/>
<path d="M127.815 133.695V127.287C127.815 126.367 128.054 125.521 128.534 124.702C129.064 123.793 129.757 122.91 130.59 122.053C131.46 121.157 132.394 120.261 133.365 119.404C134.399 118.495 135.37 117.537 136.279 116.553C137.212 115.544 138.007 114.472 138.612 113.362C139.268 112.176 139.609 110.864 139.609 109.451C139.609 108.518 139.457 107.597 139.155 106.727C138.839 105.831 138.385 105.036 137.78 104.368C137.174 103.699 136.43 103.144 135.585 102.728C134.715 102.312 133.718 102.097 132.621 102.097C131.208 102.097 130.022 102.362 129.101 102.904C128.181 103.434 127.462 104.128 126.944 104.986C126.453 105.806 126.112 106.752 125.948 107.786C125.797 108.745 125.708 109.741 125.708 110.738C125.708 110.738 125.708 112.1 125.708 112.163H111.001C110.976 111.886 110.95 111.621 110.913 111.356C110.862 110.851 110.824 110.309 110.824 109.754C110.824 106.979 111.417 104.456 112.565 102.236C113.725 100.016 115.378 98.0859 117.446 96.5218C119.54 94.9324 122.076 93.6962 124.964 92.8511C127.891 91.9933 131.132 91.5645 134.588 91.5645C138.045 91.5645 141.021 91.9933 143.759 92.8259C146.483 93.6584 148.829 94.8567 150.772 96.383C152.676 97.8967 154.177 99.7383 155.237 101.883C156.284 104.027 156.814 106.449 156.814 109.085C156.814 110.99 156.46 112.693 155.767 114.144C155.048 115.645 154.127 117.02 153.042 118.231C151.932 119.467 150.734 120.577 149.46 121.535C148.135 122.532 146.899 123.453 145.751 124.298C144.566 125.168 143.557 126.013 142.749 126.821C141.791 127.779 141.299 128.814 141.299 129.886V133.67H127.802L127.815 133.695Z" fill="white"/>
<path d="M141.526 140.494H127.865V153.121H141.526V140.494Z" fill="white"/>
<path d="M50.0001 146.235V142.729C50.0001 142.224 50.1263 141.757 50.3912 141.316C50.6813 140.824 51.0597 140.332 51.5138 139.865C51.9931 139.373 52.4976 138.881 53.04 138.415C53.6076 137.923 54.1374 137.393 54.642 136.85C55.1591 136.295 55.588 135.703 55.9159 135.097C56.2817 134.454 56.4583 133.735 56.4583 132.953C56.4583 132.436 56.37 131.931 56.2061 131.464C56.0421 130.972 55.7772 130.543 55.4492 130.165C55.1213 129.799 54.7176 129.496 54.2383 129.269C53.759 129.042 53.2166 128.929 52.6112 128.929C51.8291 128.929 51.1858 129.08 50.6813 129.37C50.1767 129.66 49.7857 130.039 49.4956 130.518C49.2307 130.96 49.0415 131.477 48.9532 132.057C48.8649 132.587 48.8271 133.129 48.8271 133.672C48.8271 133.672 48.8271 134.416 48.8271 134.454H40.7669C40.7543 134.302 40.7417 134.164 40.7165 134.012C40.6912 133.735 40.666 133.445 40.666 133.142C40.666 131.616 40.994 130.241 41.6247 129.03C42.2679 127.819 43.1635 126.759 44.2987 125.901C45.4466 125.031 46.8341 124.35 48.4234 123.896C50.0254 123.429 51.8039 123.189 53.6959 123.189C55.588 123.189 57.2151 123.416 58.7162 123.883C60.2046 124.337 61.5038 124.993 62.5507 125.826C63.5977 126.658 64.4176 127.667 64.9978 128.841C65.578 130.014 65.8681 131.338 65.8681 132.789C65.8681 133.836 65.6789 134.769 65.2879 135.564C64.8969 136.384 64.3923 137.141 63.7995 137.809C63.194 138.49 62.5381 139.096 61.8318 139.626C61.1002 140.181 60.4316 140.685 59.801 141.139C59.145 141.619 58.59 142.085 58.1612 142.514C57.6314 143.044 57.3665 143.612 57.3665 144.192V146.273H49.9749L50.0001 146.235Z" fill="white"/>
<path d="M57.5179 149.969H50.0254V156.881H57.5179V149.969Z" fill="white"/>
<path d="M134.664 355.098V346.861C134.664 345.676 134.967 344.591 135.598 343.531C136.279 342.371 137.174 341.223 138.234 340.125C139.356 338.965 140.555 337.83 141.816 336.72C143.141 335.546 144.402 334.323 145.562 333.062C146.773 331.762 147.782 330.375 148.564 328.962C149.41 327.436 149.838 325.745 149.838 323.929C149.838 322.718 149.637 321.545 149.258 320.422C148.855 319.274 148.262 318.253 147.48 317.382C146.698 316.512 145.752 315.806 144.654 315.276C143.532 314.733 142.245 314.456 140.832 314.456C139.016 314.456 137.49 314.809 136.304 315.49C135.131 316.171 134.197 317.067 133.529 318.177C132.898 319.224 132.457 320.435 132.242 321.785C132.041 323.021 131.94 324.307 131.94 325.581C131.94 325.581 131.94 327.322 131.94 327.41H113.019C112.981 327.057 112.943 326.717 112.906 326.376C112.83 325.72 112.805 325.039 112.805 324.32C112.805 320.75 113.562 317.496 115.05 314.658C116.551 311.794 118.657 309.322 121.332 307.304C124.031 305.26 127.285 303.671 131.006 302.586C134.765 301.489 138.94 300.934 143.393 300.934C147.845 300.934 151.667 301.476 155.199 302.561C158.693 303.633 161.733 305.172 164.218 307.127C166.678 309.07 168.608 311.454 169.957 314.216C171.307 316.966 171.988 320.094 171.988 323.487C171.988 325.935 171.534 328.129 170.638 329.996C169.705 331.926 168.532 333.705 167.132 335.256C165.706 336.846 164.155 338.271 162.528 339.507C160.825 340.794 159.236 341.98 157.747 343.064C156.221 344.187 154.922 345.272 153.887 346.306C152.651 347.542 152.021 348.867 152.021 350.254V355.123H134.664V355.098Z" fill="white"/>
<path d="M152.31 363.852H134.727V380.086H152.31V363.852Z" fill="white"/>
<path d="M11.1632 215.411V211.198C11.1632 210.592 11.3145 210.037 11.6425 209.495C11.9957 208.902 12.4498 208.322 12.9922 207.754C13.5598 207.161 14.1778 206.581 14.8211 206.013C15.5023 205.42 16.1456 204.79 16.7384 204.146C17.3565 203.478 17.8737 202.771 18.2773 202.052C18.7062 201.27 18.9332 200.413 18.9332 199.479C18.9332 198.861 18.8323 198.256 18.6305 197.688C18.4287 197.095 18.1259 196.578 17.7223 196.136C17.3313 195.695 16.8393 195.329 16.2717 195.064C15.6915 194.787 15.0356 194.648 14.3166 194.648C13.3832 194.648 12.6011 194.825 11.9957 195.178C11.3902 195.531 10.9109 195.985 10.583 196.553C10.255 197.095 10.0406 197.713 9.92704 198.394C9.82613 199.025 9.77568 199.681 9.77568 200.337C9.77568 200.337 9.77568 201.232 9.77568 201.27H0.113605C0.100991 201.094 0.0757637 200.917 0.06315 200.74C0.025309 200.413 0.0126953 200.059 0.0126953 199.694C0.0126953 197.864 0.403719 196.212 1.16054 194.761C1.92997 193.298 3.00214 192.037 4.36441 191.002C5.7393 189.956 7.40431 189.148 9.30897 188.593C11.2262 188.026 13.358 187.748 15.641 187.748C17.9241 187.748 19.8666 188.026 21.6704 188.581C23.4615 189.123 25.0004 189.918 26.2744 190.914C27.5231 191.911 28.5196 193.122 29.2133 194.534C29.9071 195.947 30.2477 197.537 30.2477 199.265C30.2477 200.513 30.0206 201.636 29.5539 202.595C29.0746 203.579 28.4691 204.487 27.7628 205.282C27.0312 206.089 26.2491 206.82 25.404 207.451C24.5337 208.107 23.7138 208.713 22.9696 209.268C22.1875 209.835 21.519 210.39 21.0018 210.92C20.3712 211.551 20.0432 212.232 20.0432 212.938V215.423H11.1758L11.1632 215.411Z" fill="white"/>
<path d="M20.1694 219.889H11.1885V228.176H20.1694V219.889Z" fill="white"/>
<path d="M149.408 260.707V256.494C149.408 255.889 149.56 255.334 149.888 254.792C150.241 254.199 150.695 253.618 151.237 253.051C151.805 252.458 152.423 251.878 153.066 251.31C153.747 250.717 154.391 250.086 154.984 249.443C155.602 248.775 156.119 248.068 156.522 247.349C156.951 246.567 157.178 245.709 157.178 244.776C157.178 244.158 157.077 243.552 156.876 242.985C156.674 242.392 156.371 241.875 155.967 241.433C155.576 240.992 155.084 240.626 154.517 240.361C153.937 240.084 153.281 239.945 152.562 239.945C151.628 239.945 150.846 240.121 150.241 240.475C149.635 240.828 149.156 241.282 148.828 241.85C148.5 242.392 148.286 243.01 148.172 243.691C148.071 244.322 148.021 244.978 148.021 245.634C148.021 245.634 148.021 246.529 148.021 246.567H138.359C138.346 246.391 138.321 246.214 138.308 246.037C138.27 245.709 138.258 245.356 138.258 244.99C138.258 243.161 138.649 241.509 139.406 240.058C140.175 238.595 141.247 237.334 142.61 236.299C143.984 235.252 145.649 234.445 147.554 233.89C149.471 233.322 151.603 233.045 153.886 233.045C156.169 233.045 158.112 233.322 159.915 233.877C161.707 234.42 163.245 235.215 164.519 236.211C165.768 237.208 166.765 238.419 167.458 239.831C168.152 241.244 168.493 242.833 168.493 244.562C168.493 245.81 168.266 246.933 167.799 247.892C167.32 248.876 166.714 249.784 166.008 250.578C165.276 251.386 164.494 252.117 163.649 252.748C162.779 253.404 161.959 254.009 161.215 254.564C160.433 255.132 159.764 255.687 159.247 256.217C158.616 256.848 158.288 257.529 158.288 258.235V260.72H149.421L149.408 260.707Z" fill="white"/>
<path d="M158.427 265.172H149.446V273.459H158.427V265.172Z" fill="white"/>
</g>
<defs>
<clipPath id="clip0_119_1321">
<rect width="172" height="466" fill="white"/>
</clipPath>
</defs>
</svg>
