<svg width="56" height="56" viewBox="0 0 56 56" fill="none" xmlns="http://www.w3.org/2000/svg">
<circle cx="28" cy="28" r="28" fill="#4452FE"/>
<path d="M25.539 38.4991C34.596 38.4991 39.5505 30.9946 39.5505 24.4981C39.5505 24.2881 39.5505 24.0751 39.5415 23.8651C40.5061 23.1668 41.3386 22.3023 42 21.3121C41.099 21.7094 40.1441 21.9712 39.1665 22.0891C40.1963 21.4735 40.9676 20.505 41.337 19.3636C40.3695 19.9368 39.3105 20.3391 38.2065 20.5531C37.4643 19.7626 36.4821 19.239 35.4121 19.0632C34.3422 18.8875 33.2441 19.0695 32.288 19.581C31.3319 20.0925 30.5712 20.905 30.1237 21.8927C29.6761 22.8803 29.5668 23.988 29.8125 25.0441C27.8546 24.9459 25.9392 24.4373 24.1906 23.5512C22.4419 22.6651 20.899 21.4214 19.662 19.9006C19.034 20.9852 18.8424 22.2682 19.126 23.489C19.4096 24.7098 20.1472 25.7769 21.189 26.4736C20.4083 26.4471 19.6448 26.2374 18.96 25.8616V25.9291C18.9613 27.0653 19.355 28.1662 20.0743 29.0457C20.7937 29.9252 21.7946 30.5294 22.908 30.7561C22.4854 30.8725 22.0488 30.9305 21.6105 30.9286C21.3015 30.9295 20.9931 30.9009 20.6895 30.8431C21.0042 31.8212 21.6169 32.6763 22.4419 33.2888C23.2668 33.9013 24.2627 34.2404 25.29 34.2586C23.5448 35.6293 21.3891 36.3727 19.17 36.3691C18.779 36.3707 18.3882 36.3482 18 36.3016C20.2523 37.7375 22.8679 38.4999 25.539 38.4991V38.4991Z" fill="white"/>
</svg>
